<svg width="734" height="525" viewBox="0 0 734 525" fill="none" xmlns="http://www.w3.org/2000/svg">
<path d="M367.002 525C325.986 525 296.272 497.277 264.803 467.928C240.341 445.106 215.046 421.504 183.76 411.764C126.474 393.917 64.1739 381.676 3.93035 369.847L0 369.075L154.484 0.00427429L155.291 0.390515C187.083 15.5637 220.149 28.882 253.568 39.985C263.885 43.4101 272.426 49.6492 278.277 58.0358C300.542 89.9652 325.658 120.218 352.925 147.954C356.664 151.757 361.665 153.85 367.002 153.85C372.339 153.85 377.344 151.757 381.079 147.95C408.35 120.218 433.462 89.9652 455.727 58.0315C461.574 49.6449 470.119 43.4059 480.436 39.9808C513.846 28.8864 546.913 15.5637 578.713 0.386241L579.516 0L734 369.071L732.98 369.27C724.227 370.989 715.249 372.7 706.126 374.44C645.585 385.98 576.967 399.061 523.216 424.59C501.129 435.082 482.089 453.209 463.677 470.746C435.68 497.421 406.723 525 367.002 525ZM2.3752 367.806L4.25752 368.18C64.5478 380.021 126.895 392.266 184.266 410.138C215.926 420.002 241.365 443.736 265.967 466.684C297.177 495.8 326.657 523.302 367.002 523.302C406.043 523.302 433.471 497.179 462.509 469.524C481.018 451.897 500.156 433.668 522.489 423.062C576.435 397.439 645.169 384.337 705.807 372.776C714.577 371.104 723.207 369.461 731.629 367.806L578.636 2.30462C547.023 17.3547 514.165 30.5671 480.975 41.5937C471.007 44.9042 462.764 50.9225 457.125 59.0078C434.809 91.0178 409.629 121.347 382.295 149.143C378.237 153.277 372.806 155.547 367.002 155.547C361.202 155.547 355.768 153.277 351.71 149.147C324.375 121.343 299.199 91.0178 276.879 59.0078C271.24 50.9267 262.997 44.9084 253.029 41.5937C219.831 30.5629 186.972 17.3505 155.368 2.30462L2.3752 367.806Z" fill="url(#paint0_linear_294_16198)"/>
<path d="M367.004 470.928C327.955 470.928 300.323 443.239 271.064 413.92C248.28 391.09 224.719 367.484 195.069 357.679C140.646 339.696 78.4909 326.679 23.6437 315.194L23.9921 313.535C78.8818 325.024 141.093 338.05 195.6 356.066C225.637 365.994 249.347 389.749 272.266 412.719C301.271 441.779 328.664 469.222 367.004 469.222C404.188 469.222 429.678 443.12 456.664 415.477C473.915 397.813 491.753 379.546 512.832 368.99C563.745 343.499 629.338 330.075 687.211 318.233C694.953 316.65 702.571 315.093 710.016 313.535L710.364 315.194C702.92 316.756 695.297 318.314 687.551 319.897C629.784 331.717 564.306 345.116 513.598 370.51C492.773 380.938 475.037 399.099 457.883 416.666C431.837 443.345 404.906 470.928 367.004 470.928Z" fill="url(#paint1_linear_294_16198)"/>
<path d="M367.005 429.386C333.684 429.386 305.291 397.108 277.829 365.9C257.289 342.561 237.896 320.517 217.203 312.079C180.682 297.19 129.056 286.079 83.5013 276.275C69.2371 273.202 55.7718 270.307 43.6024 267.468L43.9934 265.817C56.1415 268.648 69.6026 271.547 83.8583 274.611C129.477 284.428 181.184 295.561 217.84 310.5C238.903 319.086 258.428 341.28 279.099 364.776C306.311 395.704 334.453 427.68 367.005 427.68C401.172 427.68 428.255 396.119 454.447 365.603C474.706 342.005 493.836 319.71 516.16 310.505C554.462 294.703 601.206 284.848 646.412 275.316C661.743 272.081 676.228 269.026 690.012 265.817L690.403 267.468C676.598 270.689 662.104 273.741 646.76 276.979C601.631 286.495 554.963 296.333 516.806 312.071C494.856 321.128 475.854 343.27 455.734 366.711C429.296 397.524 401.954 429.386 367.005 429.386Z" fill="url(#paint2_linear_294_16198)"/>
<path d="M361.425 378.667C326.433 378.667 306.089 351.181 286.377 324.562C272.512 305.84 258.18 286.474 238.792 276.326C204.999 258.632 147.78 245.36 101.805 234.698C87.0482 231.273 73.1112 228.043 61.3625 224.996L61.7874 223.353C73.5191 226.392 87.4434 229.626 102.188 233.043C148.261 243.73 205.594 257.023 239.582 274.823C259.315 285.154 273.77 304.673 287.745 323.547C309.161 352.472 329.437 379.796 366.936 376.74C402.297 373.867 421.239 349.997 441.295 324.723C456.141 306.014 471.493 286.665 494.434 274.815C531.418 255.703 582.356 244.163 627.303 233.981C643.279 230.361 658.363 226.94 672.224 223.349L672.649 224.992C658.767 228.595 643.67 232.012 627.681 235.636C582.836 245.801 532.004 257.316 495.216 276.326C472.602 288.01 457.365 307.207 442.629 325.78C422.339 351.347 403.172 375.501 367.08 378.429C365.147 378.595 363.264 378.667 361.425 378.667Z" fill="url(#paint3_linear_294_16198)"/>
<path d="M361.7 340.6C328.213 340.6 307.8 312.266 288.029 284.818C275.24 267.06 262.012 248.696 245.402 238.221C217.962 220.913 157.786 206.516 113.847 196.008C99.4804 192.57 87.0773 189.607 77.2874 186.929L77.7335 185.287C87.5022 187.96 99.8925 190.923 114.242 194.357C158.296 204.891 218.629 219.325 246.308 236.786C263.202 247.444 276.523 265.94 289.415 283.829C310.894 313.641 331.2 341.852 366.931 338.673C401.034 335.694 420.992 310.381 442.114 283.588C455.596 266.487 469.533 248.806 487.685 236.799C517.803 216.876 571.036 204.963 613.815 195.396C629.401 191.912 644.128 188.614 656.276 185.291L656.727 186.933C644.541 190.265 629.796 193.559 614.185 197.056C571.55 206.593 518.487 218.464 488.625 238.217C470.702 250.075 456.85 267.646 443.453 284.64C422.097 311.735 401.922 337.324 367.08 340.371C365.248 340.524 363.455 340.6 361.7 340.6Z" fill="url(#paint4_linear_294_16198)"/>
<path d="M367.004 314.579C343.022 314.579 311.643 279.751 283.956 249.023C267.04 230.246 251.059 212.514 238.89 205.01C205.492 184.421 164.765 173.161 125.376 162.27C113.648 159.028 102.575 155.968 91.6124 152.649L92.101 151.023C103.047 154.329 114.115 157.394 125.83 160.632C165.334 171.557 206.181 182.851 239.787 203.567C252.16 211.198 268.217 229.015 285.218 247.885C312.671 278.35 343.783 312.877 367.004 312.877C393.106 312.877 415.575 281.198 435.393 253.25C446.666 237.351 457.314 222.335 467.329 215.171C502.308 190.147 561.383 173.692 608.85 160.467C620.726 157.156 631.948 154.028 641.912 151.015L642.4 152.64C632.419 155.658 621.193 158.786 609.304 162.101C561.965 175.287 503.056 191.708 468.315 216.554C458.538 223.545 447.97 238.45 436.778 254.23C416.723 282.518 393.99 314.579 367.004 314.579Z" fill="url(#paint5_linear_294_16198)"/>
<path d="M367.002 283.533C344.185 283.533 314.101 248.539 287.561 217.662C271.483 198.957 256.292 181.289 244.905 173.955C213.172 153.527 174.123 142.14 136.362 131.126C125.327 127.909 114.904 124.87 104.591 121.598L105.106 119.981C115.401 123.249 125.811 126.279 136.838 129.496C174.714 140.544 213.886 151.965 245.822 172.529C257.418 179.994 272.685 197.752 288.849 216.554C315.151 247.151 344.962 281.831 367.002 281.831C392.076 281.831 413.585 249.91 432.566 221.753C443.197 205.973 453.233 191.076 462.552 184.145C495.818 159.376 552.551 142.675 598.136 129.254C609.183 125.999 619.619 122.93 628.903 119.981L629.417 121.598C620.116 124.547 609.668 127.624 598.616 130.876C553.159 144.258 496.587 160.916 463.563 185.499C454.482 192.26 444.523 207.043 433.972 222.695C414.762 251.217 392.986 283.533 367.002 283.533Z" fill="url(#paint6_linear_294_16198)"/>
<path d="M361.52 243.28C332.864 243.28 311.907 216.473 289.799 188.194C273.763 167.677 257.171 146.46 237.14 135.68C212.946 122.663 183.908 114.038 155.821 105.703C141.986 101.594 128.916 97.7151 116.385 93.3435L116.951 91.7434C129.443 96.098 142.492 99.973 156.31 104.077C184.473 112.438 213.6 121.088 237.948 134.19C258.292 145.136 274.991 166.497 291.142 187.154C314.355 216.847 336.284 244.837 366.903 241.264C396.383 237.762 413.486 216.562 431.591 194.123C442.707 180.342 454.205 166.094 469.238 154.953C504.608 128.736 544.128 115.817 585.978 102.138C596.146 98.8143 606.658 95.3765 617.051 91.7519L617.616 93.3519C607.206 96.985 596.681 100.427 586.505 103.755C544.796 117.387 505.398 130.268 470.254 156.315C455.395 167.333 443.969 181.496 432.917 195.193C414.587 217.912 397.276 239.371 367.107 242.953C365.212 243.17 363.347 243.28 361.52 243.28Z" fill="url(#paint7_linear_294_16198)"/>
<path d="M361.61 217.496C334.05 217.496 314.084 190.689 293.021 162.406C277.724 141.872 261.913 120.638 242.716 109.883C219.703 96.9893 191.846 88.314 164.911 79.9274C151.662 75.7978 139.144 71.9015 127.183 67.5385L127.765 65.9469C139.693 70.293 152.189 74.185 165.417 78.3019C192.437 86.714 220.383 95.4147 243.549 108.398C263.065 119.331 278.986 140.713 294.389 161.391C316.523 191.11 337.437 219.16 366.9 215.459C395.42 211.855 411.655 190.711 428.843 168.318C439.423 154.537 450.365 140.293 464.799 129.156C498.63 103.059 536.574 90.0457 576.75 76.2732C586.395 72.9669 596.363 69.5461 606.251 65.9427L606.833 67.5343C596.933 71.1504 586.952 74.567 577.302 77.8817C537.263 91.6076 499.45 104.574 465.84 130.498C451.576 141.499 440.711 155.657 430.194 169.349C412.786 192.031 396.337 213.451 367.117 217.14C365.243 217.377 363.411 217.496 361.61 217.496Z" fill="url(#paint8_linear_294_16198)"/>
<path d="M361.69 193.83C335.146 193.83 316.08 167.015 295.965 138.723C281.357 118.172 266.247 96.9213 247.827 86.1961C225.885 73.4167 199.107 64.6991 173.213 56.2616C160.513 52.1192 148.513 48.2102 137.075 43.8599L137.678 42.2767C149.078 46.6101 161.056 50.5106 173.736 54.6445C199.715 63.1075 226.577 71.8592 248.677 84.7277C267.415 95.6354 282.631 117.039 297.346 137.738C318.502 167.49 338.481 195.549 366.882 191.78C394.514 188.079 409.964 166.973 426.314 144.631C436.397 130.858 446.825 116.61 460.706 105.486C493.127 79.503 529.618 66.4095 568.251 52.5436C577.416 49.2585 586.892 45.8546 596.312 42.2725L596.919 43.8556C587.482 47.4463 577.998 50.8501 568.824 54.1436C530.328 67.9544 493.972 81.0013 461.773 106.811C448.069 117.795 437.71 131.945 427.691 145.628C411.115 168.276 395.457 189.662 367.107 193.461C365.272 193.716 363.466 193.83 361.69 193.83Z" fill="url(#paint9_linear_294_16198)"/>
<path d="M367.003 174.243C360.302 174.243 353.597 171.718 348.49 166.68C320.102 138.626 293.91 107.91 270.651 75.3991C266.576 69.7076 260.908 65.5992 254.262 63.5237C217.533 52.0643 181.161 38.1092 146.152 22.049L146.858 20.5083C181.811 36.5388 218.115 50.4684 254.768 61.9109C261.77 64.0967 267.744 68.4173 272.04 74.4144C295.244 106.849 321.368 137.484 349.688 165.47C359.244 174.918 374.779 174.91 384.318 165.47C412.63 137.497 438.757 106.862 461.966 74.4144C466.262 68.4173 472.232 64.0924 479.238 61.9109C515.887 50.4727 552.191 36.5388 587.148 20.5083L587.853 22.049C552.837 38.1134 516.465 52.0685 479.748 63.5237C473.099 65.5992 467.43 69.7076 463.355 75.3991C440.079 107.927 413.892 138.634 385.516 166.68C380.413 171.722 373.712 174.243 367.003 174.243Z" fill="url(#paint10_linear_294_16198)"/>
<path d="M665.504 381.96C644.539 320.746 623.799 259.077 603.735 199.437C583.671 139.797 562.927 78.1319 541.966 16.9172L543.577 16.3697C564.542 77.5844 585.281 139.253 605.346 198.893C625.41 258.533 646.154 320.198 667.115 381.413L665.504 381.96Z" fill="url(#paint11_linear_294_16198)"/>
<path d="M596.677 397.703C580.374 336.488 564.35 276.53 548.323 216.571C532.299 156.617 516.272 96.6587 499.964 35.444L501.608 35.0025C517.912 96.2172 533.935 156.176 549.963 216.134C565.986 276.088 582.014 336.047 598.322 397.261L596.677 397.703Z" fill="url(#paint12_linear_294_16198)"/>
<path d="M533.8 418.572C522.166 357.425 509.865 295.506 497.972 235.628C486.049 175.619 473.727 113.572 462.072 52.2936L463.741 51.9795C475.397 113.254 487.719 175.296 499.638 235.297C511.535 295.179 523.832 357.102 535.47 418.258L533.8 418.572Z" fill="url(#paint13_linear_294_16198)"/>
<path d="M466.899 466C459.913 404.79 452.558 342.807 445.445 282.866C438.336 222.924 430.986 160.937 423.996 99.7224L425.678 99.5314C432.668 160.742 440.019 222.725 447.132 282.666C454.241 342.608 461.592 404.595 468.581 465.81L466.899 466Z" fill="url(#paint14_linear_294_16198)"/>
<path d="M399.201 519.071C396.885 458.115 394.578 394.15 392.351 332.299C390.104 269.917 387.779 205.408 385.438 143.935L387.138 143.867C389.479 205.341 391.803 269.853 394.047 332.235C396.278 394.086 398.581 458.051 400.901 519.003L399.201 519.071Z" fill="url(#paint15_linear_294_16198)"/>
<path d="M336.424 518.268L334.724 518.201C337.057 456.99 338.944 392.962 340.771 331.042C342.602 269.119 344.489 205.086 346.817 143.867L348.517 143.935C346.184 205.145 344.298 269.174 342.471 331.093C340.639 393.017 338.753 457.05 336.424 518.268Z" fill="url(#paint16_linear_294_16198)"/>
<path d="M267.909 468.42L266.222 468.229C273.225 406.9 280.134 343.974 286.814 283.125C293.468 222.508 300.355 159.825 307.328 98.7293L309.011 98.9204C302.038 160.016 295.154 222.695 288.5 283.307C281.825 344.157 274.912 407.086 267.909 468.42Z" fill="url(#paint17_linear_294_16198)"/>
<path d="M201.818 418.571L200.148 418.257C211.795 357.047 223.084 294.656 233.996 234.32C244.912 173.975 256.202 111.585 267.849 50.3661L269.514 50.6802C257.868 111.891 246.582 174.281 235.666 234.617C224.754 294.962 213.469 357.352 201.818 418.571Z" fill="url(#paint18_linear_294_16198)"/>
<path d="M138.944 397.703L137.299 397.261C153.616 336.017 169.095 274.615 184.069 215.23C199.03 155.912 214.492 94.5788 230.788 33.3938L232.432 33.831C216.137 95.0032 200.67 156.332 185.722 215.646C170.744 275.035 155.26 336.445 138.944 397.703Z" fill="url(#paint19_linear_294_16198)"/>
<path d="M68.4997 381.96L66.8893 381.413C87.8586 320.198 108.475 259.964 129.1 199.729C149.725 139.495 170.346 79.261 191.311 18.0463L192.922 18.5938C171.957 79.8085 151.336 140.043 130.711 200.277C110.09 260.511 89.4647 320.746 68.4997 381.96Z" fill="url(#paint20_linear_294_16198)"/>
<defs>
<linearGradient id="paint0_linear_294_16198" x1="367" y1="0" x2="367" y2="525" gradientUnits="userSpaceOnUse">
<stop offset="0.328946" stop-color="#010001"/>
<stop offset="1" stop-color="white"/>
</linearGradient>
<linearGradient id="paint1_linear_294_16198" x1="367" y1="0" x2="367" y2="525" gradientUnits="userSpaceOnUse">
<stop offset="0.328946" stop-color="#010001"/>
<stop offset="1" stop-color="white"/>
</linearGradient>
<linearGradient id="paint2_linear_294_16198" x1="367" y1="0" x2="367" y2="525" gradientUnits="userSpaceOnUse">
<stop offset="0.328946" stop-color="#010001"/>
<stop offset="1" stop-color="white"/>
</linearGradient>
<linearGradient id="paint3_linear_294_16198" x1="367" y1="0" x2="367" y2="525" gradientUnits="userSpaceOnUse">
<stop offset="0.328946" stop-color="#010001"/>
<stop offset="1" stop-color="white"/>
</linearGradient>
<linearGradient id="paint4_linear_294_16198" x1="367" y1="0" x2="367" y2="525" gradientUnits="userSpaceOnUse">
<stop offset="0.328946" stop-color="#010001"/>
<stop offset="1" stop-color="white"/>
</linearGradient>
<linearGradient id="paint5_linear_294_16198" x1="367" y1="0" x2="367" y2="525" gradientUnits="userSpaceOnUse">
<stop offset="0.328946" stop-color="#010001"/>
<stop offset="1" stop-color="white"/>
</linearGradient>
<linearGradient id="paint6_linear_294_16198" x1="367" y1="0" x2="367" y2="525" gradientUnits="userSpaceOnUse">
<stop offset="0.328946" stop-color="#010001"/>
<stop offset="1" stop-color="white"/>
</linearGradient>
<linearGradient id="paint7_linear_294_16198" x1="367" y1="0" x2="367" y2="525" gradientUnits="userSpaceOnUse">
<stop offset="0.328946" stop-color="#010001"/>
<stop offset="1" stop-color="white"/>
</linearGradient>
<linearGradient id="paint8_linear_294_16198" x1="367" y1="0" x2="367" y2="525" gradientUnits="userSpaceOnUse">
<stop offset="0.328946" stop-color="#010001"/>
<stop offset="1" stop-color="white"/>
</linearGradient>
<linearGradient id="paint9_linear_294_16198" x1="367" y1="0" x2="367" y2="525" gradientUnits="userSpaceOnUse">
<stop offset="0.328946" stop-color="#010001"/>
<stop offset="1" stop-color="white"/>
</linearGradient>
<linearGradient id="paint10_linear_294_16198" x1="367" y1="0" x2="367" y2="525" gradientUnits="userSpaceOnUse">
<stop offset="0.328946" stop-color="#010001"/>
<stop offset="1" stop-color="white"/>
</linearGradient>
<linearGradient id="paint11_linear_294_16198" x1="367" y1="0" x2="367" y2="525" gradientUnits="userSpaceOnUse">
<stop offset="0.328946" stop-color="#010001"/>
<stop offset="1" stop-color="white"/>
</linearGradient>
<linearGradient id="paint12_linear_294_16198" x1="367" y1="0" x2="367" y2="525" gradientUnits="userSpaceOnUse">
<stop offset="0.328946" stop-color="#010001"/>
<stop offset="1" stop-color="white"/>
</linearGradient>
<linearGradient id="paint13_linear_294_16198" x1="367" y1="0" x2="367" y2="525" gradientUnits="userSpaceOnUse">
<stop offset="0.328946" stop-color="#010001"/>
<stop offset="1" stop-color="white"/>
</linearGradient>
<linearGradient id="paint14_linear_294_16198" x1="367" y1="0" x2="367" y2="525" gradientUnits="userSpaceOnUse">
<stop offset="0.328946" stop-color="#010001"/>
<stop offset="1" stop-color="white"/>
</linearGradient>
<linearGradient id="paint15_linear_294_16198" x1="367" y1="0" x2="367" y2="525" gradientUnits="userSpaceOnUse">
<stop offset="0.328946" stop-color="#010001"/>
<stop offset="1" stop-color="white"/>
</linearGradient>
<linearGradient id="paint16_linear_294_16198" x1="367" y1="0" x2="367" y2="525" gradientUnits="userSpaceOnUse">
<stop offset="0.328946" stop-color="#010001"/>
<stop offset="1" stop-color="white"/>
</linearGradient>
<linearGradient id="paint17_linear_294_16198" x1="367" y1="0" x2="367" y2="525" gradientUnits="userSpaceOnUse">
<stop offset="0.328946" stop-color="#010001"/>
<stop offset="1" stop-color="white"/>
</linearGradient>
<linearGradient id="paint18_linear_294_16198" x1="367" y1="0" x2="367" y2="525" gradientUnits="userSpaceOnUse">
<stop offset="0.328946" stop-color="#010001"/>
<stop offset="1" stop-color="white"/>
</linearGradient>
<linearGradient id="paint19_linear_294_16198" x1="367" y1="0" x2="367" y2="525" gradientUnits="userSpaceOnUse">
<stop offset="0.328946" stop-color="#010001"/>
<stop offset="1" stop-color="white"/>
</linearGradient>
<linearGradient id="paint20_linear_294_16198" x1="367" y1="0" x2="367" y2="525" gradientUnits="userSpaceOnUse">
<stop offset="0.328946" stop-color="#010001"/>
<stop offset="1" stop-color="white"/>
</linearGradient>
</defs>
</svg>
