<svg width="243" height="247" viewBox="0 0 243 247" fill="none" xmlns="http://www.w3.org/2000/svg">
<path d="M141.001 0V94.711C165.809 93.1564 185.45 72.5552 185.45 47.3563C185.452 22.1558 165.809 1.55465 141.001 0Z" fill="#FF6620"/>
<path d="M185.451 0V94.711C210.259 93.1564 229.902 72.5552 229.902 47.3563C229.9 22.1558 210.258 1.55465 185.451 0Z" fill="#FF6620"/>
<path d="M180 247C214.794 247 243 218.794 243 184C243 149.206 214.794 121 180 121C145.206 121 117 149.206 117 184C117 218.794 145.206 247 180 247Z" fill="white"/>
<path d="M21.2668 0.0452053L0 21.312L75.3267 96.6387L96.5935 75.3719L21.2668 0.0452053Z" fill="white"/>
<path d="M75.4184 -2.48843e-05L0.0810547 75.3267L21.3478 96.5964L96.6851 21.2697L75.4184 -2.48843e-05Z" fill="white"/>
</svg>
