<svg width="54" height="69" viewBox="0 0 54 69" fill="none" xmlns="http://www.w3.org/2000/svg">
<g clip-path="url(#clip0_499_620)">
<path d="M42.0689 63.3367C42.2003 63.8679 41.5653 65.0471 39.955 65.6417C38.4088 66.2127 37.1228 65.7781 36.9441 65.3252C30.2859 48.1659 27.9999 42.5035 21.3417 25.3443L26.4665 23.3558L42.0689 63.3367Z" fill="white"/>
<path d="M48.2363 32.1976L11.3696 46.5046L12.4292 49.2349L49.2958 34.9278L48.2363 32.1976Z" fill="black"/>
<path d="M49.22 34.762C46.8495 28.6537 36.675 26.9047 26.4946 30.8555C16.3141 34.8063 9.98289 42.9608 12.3534 49.0691C14.7239 55.1774 24.8984 56.9264 35.0788 52.9756C45.2593 49.0248 51.5905 40.8703 49.22 34.762Z" fill="#212121"/>
<path d="M48.4456 32.7205C50.767 38.7033 44.4384 46.7391 34.3098 50.6693C24.1815 54.5994 14.089 52.9353 11.7675 46.9529C9.44601 40.97 15.7749 32.9341 25.9032 29.004C36.0314 25.0737 46.1241 26.7376 48.4456 32.7205Z" fill="white"/>
<path d="M48.2471 32.2103C50.6173 38.3188 44.2855 46.4737 34.1042 50.424C23.9231 54.3746 13.7483 52.625 11.3779 46.5163C9.00768 40.4078 15.3395 32.253 25.5207 28.3024C35.7016 24.352 45.8765 26.1017 48.2471 32.2103Z" fill="#212121"/>
<path d="M40.1995 35.4701C41.028 37.6053 36.9117 41.1922 31.0065 43.4835C25.1041 45.7739 19.6456 45.9021 18.817 43.7669L18.7443 43.5148L10.8748 14.6159L26.4006 8.59153L40.083 35.2347L40.1995 35.4701Z" fill="#2E2E2E"/>
<path d="M31.7728 5.36922L5.4248 15.5942L6.18207 17.5456L32.53 7.32055L31.7728 5.36922Z" fill="black"/>
<path d="M32.4899 7.19692C34.1839 11.5628 29.6587 17.3906 22.3821 20.214C15.1058 23.0373 7.83394 21.787 6.14005 17.4213C4.44603 13.0555 8.97128 7.22763 16.2475 4.40412C23.524 1.58071 30.7959 2.83103 32.4899 7.19692Z" fill="black"/>
<path d="M31.9266 5.74469C33.5858 10.0204 29.0626 15.7637 21.8241 18.5724C14.5854 21.3812 7.37244 20.1919 5.71326 15.9163C4.05407 11.6406 8.57707 5.89735 15.8158 3.08854C23.0545 0.279738 30.2675 1.46901 31.9266 5.74469Z" fill="white"/>
<path d="M31.7849 5.3801C33.4788 9.74574 28.9536 15.5738 21.6771 18.3972C14.4008 21.2205 7.1289 19.9702 5.43488 15.6043C3.74087 11.2384 8.26613 5.41056 15.5424 2.58728C22.819 -0.23612 30.0909 1.01421 31.7849 5.3801Z" fill="#212121"/>
</g>
<defs>
<clipPath id="clip0_499_620">
<rect width="54" height="69" fill="white"/>
</clipPath>
</defs>
</svg>
