<svg width="54" height="69" viewBox="0 0 54 69" fill="none" xmlns="http://www.w3.org/2000/svg">
<path d="M27.1612 67.2879C27.0359 67.8206 25.9329 68.5803 24.2287 68.3749C22.5922 68.1777 21.6461 67.2043 21.6936 66.7198C23.5958 48.4126 24.1445 42.3308 26.0467 24.0237L31.5143 24.5919L27.1612 67.2879Z" fill="white"/>
<path d="M46.8539 42.3904L7.52002 38.3052L7.21747 41.2182L46.5513 45.3034L46.8539 42.3904Z" fill="black"/>
<path d="M46.5594 45.1215C47.2363 38.6044 38.9798 32.4067 28.1181 31.2786C17.2563 30.1505 7.90245 34.5191 7.22558 41.0362C6.54871 47.5533 14.8052 53.7509 25.6669 54.8791C36.5287 56.0072 45.8826 51.6385 46.5594 45.1215Z" fill="#212121"/>
<path d="M46.8013 42.9512C46.138 49.3343 36.8406 53.5985 26.0344 52.4757C15.2285 51.353 7.00626 45.2683 7.66928 38.8855C8.33256 32.5025 17.6303 28.2383 28.4362 29.361C39.2421 30.4835 47.4646 36.5682 46.8013 42.9512Z" fill="white"/>
<path d="M46.8578 42.4071C46.1807 48.9243 36.8261 53.2929 25.9638 52.164C15.1015 51.0354 6.84507 44.8372 7.52225 38.3198C8.19942 31.8026 17.554 27.434 28.4163 28.5626C39.2783 29.6912 47.5347 35.8897 46.8578 42.4071Z" fill="#212121"/>
<path d="M38.2092 41.6367C37.9725 43.9148 32.6732 45.229 26.373 44.5743C20.0757 43.9201 15.1597 41.5442 15.3964 39.2662L15.4466 39.0087L21.6261 9.7019L38.1905 11.423L38.213 41.3741L38.2092 41.6367Z" fill="#2E2E2E"/>
<path d="M44.4413 11.0063L16.3301 8.08667L16.1138 10.1686L44.2251 13.0882L44.4413 11.0063Z" fill="black"/>
<path d="M44.2454 12.9598C43.7614 17.6178 37.0759 20.7397 29.3126 19.933C21.5496 19.1262 15.6487 14.6964 16.1328 10.0388C16.6168 5.38083 23.3022 2.2589 31.0653 3.06536C38.8286 3.87209 44.7295 8.30189 44.2454 12.9598Z" fill="black"/>
<path d="M44.4065 11.4104C43.9326 15.9721 37.2875 19.0198 29.5648 18.2174C21.8418 17.4149 15.9655 13.0663 16.4394 8.50455C16.9132 3.94278 23.5581 0.895095 31.2811 1.69755C39.004 2.50001 44.8803 6.84861 44.4065 11.4104Z" fill="white"/>
<path d="M44.4466 11.0214C43.9626 15.6791 37.2771 18.8013 29.5138 17.9946C21.7508 17.1878 15.8499 12.758 16.3339 8.10011C16.818 3.44217 23.5034 0.320232 31.2665 1.12696C39.0298 1.93369 44.9306 6.3635 44.4466 11.0214Z" fill="#212121"/>
</svg>
