<svg width="54" height="69" viewBox="0 0 54 69" fill="none" xmlns="http://www.w3.org/2000/svg">
<g clip-path="url(#clip0_499_660)">
<path d="M11.8652 63.3367C11.7337 63.8679 12.3687 65.0471 13.9791 65.6417C15.5253 66.2127 16.8113 65.7781 16.99 65.3252C23.6482 48.1659 25.9342 42.5035 32.5924 25.3443L27.4676 23.3558L11.8652 63.3367Z" fill="white"/>
<path d="M5.6978 32.1976L42.5645 46.5046L41.5049 49.2349L4.63824 34.9278L5.6978 32.1976Z" fill="black"/>
<path d="M4.71406 34.762C7.08454 28.6537 17.2591 26.9047 27.4395 30.8555C37.62 34.8063 43.9512 42.9608 41.5807 49.0691C39.2102 55.1774 29.0357 56.9264 18.8552 52.9756C8.6748 49.0248 2.34358 40.8703 4.71406 34.762Z" fill="#212121"/>
<path d="M5.4885 32.7205C3.16706 38.7033 9.49569 46.7391 19.6242 50.6693C29.7525 54.5994 39.8451 52.9353 42.1666 46.9529C44.4881 40.97 38.1592 32.9341 28.0309 29.004C17.9027 25.0737 7.80994 26.7376 5.4885 32.7205Z" fill="white"/>
<path d="M5.68702 32.2103C3.31677 38.3188 9.64861 46.4737 19.8299 50.424C30.011 54.3746 40.1858 52.625 42.5562 46.5163C44.9264 40.4078 38.5946 32.253 28.4134 28.3024C18.2325 24.352 8.05763 26.1017 5.68702 32.2103Z" fill="#212121"/>
<path d="M13.7346 35.4701C12.9061 37.6053 17.0224 41.1922 22.9276 43.4835C28.83 45.7739 34.2885 45.9021 35.117 43.7669L35.1898 43.5148L43.0592 14.6159L27.5335 8.59153L13.8511 35.2347L13.7346 35.4701Z" fill="#2E2E2E"/>
<path d="M22.1613 5.36922L48.5093 15.5942L47.752 17.5456L21.404 7.32055L22.1613 5.36922Z" fill="black"/>
<path d="M21.4442 7.19692C19.7501 11.5628 24.2754 17.3906 31.5519 20.214C38.8283 23.0373 46.1001 21.787 47.794 17.4213C49.4881 13.0555 44.9628 7.22763 37.6866 4.40412C30.4101 1.58071 23.1382 2.83103 21.4442 7.19692Z" fill="black"/>
<path d="M22.0074 5.74469C20.3483 10.0204 24.8715 15.7637 32.11 18.5724C39.3487 21.3812 46.5616 20.1919 48.2208 15.9163C49.88 11.6406 45.357 5.89735 38.1183 3.08854C30.8796 0.279738 23.6666 1.46901 22.0074 5.74469Z" fill="white"/>
<path d="M22.1492 5.3801C20.4553 9.74574 24.9804 15.5738 32.257 18.3972C39.5333 21.2205 46.8052 19.9702 48.4992 15.6043C50.1932 11.2384 45.668 5.41056 38.3916 2.58728C31.1151 -0.23612 23.8432 1.01421 22.1492 5.3801Z" fill="#212121"/>
</g>
<defs>
<clipPath id="clip0_499_660">
<rect width="54" height="69" fill="white"/>
</clipPath>
</defs>
</svg>
