<svg width="1440" height="312" viewBox="0 0 1440 312" fill="none" xmlns="http://www.w3.org/2000/svg">
<g clip-path="url(#clip0_521_816)">
<rect width="1440" height="311.971" transform="matrix(1 0 0 -1 0 311.971)" fill="#010001"/>
<path d="M1440 0.000115308V227.33C1439.91 228.057 1439.84 222.69 1439.75 227.388C1435.03 229.386 1436.01 226.149 1433 223.449C1428.74 222.648 1429.52 222.392 1422.78 218.685C1415.78 219.948 1411.08 216.753 1404.3 221.583C1397.76 223.763 1391.07 230.063 1384.33 223.912C1377.61 217.281 1370.84 223.722 1364.17 226.414C1358 224.861 1350.42 227.314 1342.85 231.178C1335.28 230.014 1327.73 226.827 1321.59 229.461C1316.6 234.621 1315.04 227.305 1309.25 221.624C1305.33 216.133 1298.75 218.883 1294.72 221.856C1288.98 223.259 1283.3 223.061 1278 223.937C1272.7 216.53 1267.78 228.272 1263.57 231.17C1254.22 235.431 1249.88 246.215 1237 240.459C1231.4 243.135 1224.47 249.815 1217.63 241.541C1210.78 247.874 1204.04 241.59 1198.79 240.633C1195.35 239.022 1194.12 229.139 1190.4 237.247C1185.33 244.679 1177.64 233.63 1172.29 237.305C1161.78 228.825 1154.35 251.086 1143.64 246.842C1135.86 251.119 1127.16 242.557 1118.4 247.742C1109.64 248.807 1100.83 239.468 1092.83 246.718C1086.03 243.663 1079.42 239.163 1072.81 245.191C1066.19 243.176 1059.57 240.294 1052.76 243.58C1037.15 237.743 1021.55 248.361 1005.95 243.539C990.345 240.955 974.743 249.039 959.14 243.58C952.972 244.538 947.454 236.793 941.917 242.036C936.381 238.849 930.835 239.229 924.612 240.492C917.602 230.947 910.602 235.637 903.592 240.517C896.582 232.004 889.581 243.713 882.572 240.484C877.163 240.179 871.325 229.56 865.532 240.963C859.739 241.343 853.983 239.097 848.739 239.799C845.701 231.211 843.542 235.934 839.414 237.363C830.281 237.635 824.699 235.422 817.085 240.517C803.981 240.145 790.144 260.161 775.85 258.295C761.547 263.051 746.786 262.118 731.823 270.92C726.314 275.206 719.405 275.049 712.688 270.763C705.971 267.931 699.465 262.176 694.77 273.207C690.14 276.907 687.779 287.484 682.91 283.413C679.579 279.731 673.027 282.794 669.485 287.179C663.555 283.455 657.799 287.005 651.86 287.748C647.669 297.608 644.429 291.101 640.11 290.077C634.07 287.129 628.469 291.101 622.823 292.257C617.177 296.765 611.476 295.23 605.244 293.264C598.087 297.864 590.931 291.382 583.775 293.231C576.619 286.056 569.462 298.805 562.306 293.256C555.47 294.618 550.117 293.264 543.674 291.712C534.02 283.174 524.054 289.961 514.125 289.532C507.774 282.778 502.631 290.523 497.909 284.082C493.187 280.077 488.904 278.988 484.283 274.652C475.415 272.473 468.79 270.111 456.921 268.435C451.174 265.404 445.427 272.96 439.68 268.393C433.933 267.948 428.186 266.172 422.439 268.426C415.575 268.303 409.838 277.278 404.2 265.652C396.861 260.978 398.453 263.092 387.93 255.809C381.03 257.461 376.792 268.699 370.533 259.971C366.095 250.128 362.05 266.255 356.275 262.523C348.918 266.445 341.871 270.119 334.798 264.546C327.724 269.054 320.622 262.465 313.146 265.33C307.234 264.694 300.901 263.15 294.596 264.81C288.291 262.878 282.004 266.131 276.202 265.966C267.298 260.937 259.611 271.482 251.86 276.766C244.109 277.567 236.294 287.17 227.124 286.947C215.447 286.584 205.418 288.814 194.839 290.176C189.458 292.075 181.231 302.322 172.803 294.14C164.374 302.124 155.745 297.211 149.54 293.017C142.613 286.518 136.692 301.29 130.734 290.638C124.777 289.78 118.765 288.739 111.645 293.297C103.024 297.046 94.9989 294.007 86.7719 301.48C78.545 300.035 70.1167 313.346 60.6726 305.782C52.9032 304.279 47.0831 306.385 39.5516 308.97C32.9719 315.873 25.5411 308.689 18.8973 308.813C12.5921 305.369 6.29604 297.93 0 308.813V293.05C0 282.29 0 282.901 0 274.52V0.0497575H1440V0.000115308Z" fill="white"/>
<path d="M1440 -0.0292862V178.621C1437.06 180.643 1434.06 179.884 1431.65 181.609C1424.2 188.616 1419.55 196.489 1409.79 193.378C1402.57 195.218 1394.83 195.689 1387.06 194.459C1379.29 203.257 1371.48 189.259 1364.15 193.766C1355.39 193.122 1345.46 193.667 1336.86 193.543C1331.3 201.425 1325.86 202.737 1320.49 199.229C1315.12 201.59 1309.82 205.659 1304.51 206.55C1295.08 212.344 1281.9 216.388 1269.32 210.355C1256.74 210.074 1244.75 199.097 1237.71 199.04C1231.98 196.192 1228.19 195.771 1219.79 193.766C1210.86 182.104 1196.03 192.866 1187.89 194.22C1177.73 195.259 1171.7 204.594 1162.89 212.616C1158.39 217.593 1153.02 217.7 1147.38 216.074C1141.74 212.872 1135.83 210.569 1130.26 215.488C1123.43 218.558 1116.35 218.294 1109.33 214.935C1102.3 226.539 1095.31 206.632 1088.62 216.182C1078.38 212.212 1068.59 221.596 1057.79 218.336C1050.02 217.353 1044.42 224.08 1036.26 215.95C1026.42 219.012 1017.01 225.838 1006.97 221.934C999.848 223.692 992.618 215.975 985.38 222.107C978.141 220.457 970.893 225.458 963.746 221.703C954.393 216.495 945.041 222.561 935.688 221.736C924.24 216.256 917.092 229.296 906.934 214.721C900.794 206.707 893.912 216.363 887.79 209.645C885.072 206.979 881.97 213.359 879.316 206.03C874.09 213.359 867.904 196.134 861.681 205.254C855.458 198.511 849.19 196.704 843.799 206.187C837.869 211.857 831.893 203.719 825.918 205.964C819.942 207.722 813.975 215.48 808.045 206.038C800.294 207.87 794.382 216.314 788.69 211.857C782.998 213.598 777.516 214.151 770.634 218.823C762.38 223.007 752.945 208.844 744.855 219.136C737.104 217.585 730.735 223.923 724.146 231.334C717.557 232.713 710.748 240.083 702.1 240.578C695.667 249.566 689.023 245.761 682.736 242.353C676.119 237.714 673.667 257.877 667.92 254.369C660.59 256.771 653.095 268.581 645.279 263.25C637.473 265.66 629.356 270.009 620.818 265.156C611.721 261.302 604.016 262.243 595.167 261.938C590.298 262.738 584.926 264.843 580.03 262.127C570.458 257.877 562.258 253.131 552.97 258.867C547.049 256.482 544.578 256.763 540.057 256.119C534.704 250.862 527.712 255.772 522.038 255.855C515.037 264.092 508.192 251.109 501.521 255.962C494.85 254.617 488.343 258.785 482.019 251.307C477.526 234.042 471.889 249.467 467.844 243.533C463.827 254.823 460.99 243.194 456.094 233.736C448.892 236.971 431.339 237.574 423.359 234.132C417.301 237.698 411.243 241.544 405.185 234.132C399.127 233.81 393.068 235.585 387.01 234.132C381.675 230.105 376.038 234.504 370.748 233.992C362.759 236.344 357.936 238.193 349.993 240.661C341.693 228.958 332.779 235.379 324.232 241.04C316.279 244.012 308.748 240.652 301.28 245.844C295.808 245.035 289.393 248.245 283.023 247.288C276.654 253.23 270.321 245.604 264.995 244.994C259.349 240.149 253.73 243.797 248.166 243.302C240.662 250.911 236.855 234.322 228.527 236.98C220.41 231.285 211.368 237.417 204.285 242.427C195.445 246.265 193.587 246.05 183.933 253.082C174.434 245.398 165.777 252.504 156.149 260.601C151.217 262.268 146.165 255.756 141.388 262.705C136.932 264.628 133.555 271.825 129.016 267.731C122.683 266.601 115.444 260.031 108.242 268.548C101.04 265.668 93.8744 269.687 87.679 264.785C80.9344 262.037 73.8971 265.016 66.6858 261.492C59.4746 260.708 52.0803 259.272 44.6219 260.625C37.1636 259.462 29.6412 260.964 22.1645 258.579C14.6879 259.594 7.26616 265.239 0 261.781C0 261.979 0 257.134 0 246.141V-0.00447705H1440V-0.0292862Z" fill="#FF6620"/>
</g>
<defs>
<clipPath id="clip0_521_816">
<rect width="1440" height="311.971" fill="white" transform="matrix(1 0 0 -1 0 311.971)"/>
</clipPath>
</defs>
</svg>
