<svg width="1440" height="312" viewBox="0 0 1440 312" fill="none" xmlns="http://www.w3.org/2000/svg">
<g clip-path="url(#clip0_521_814)">
<rect width="1440" height="311.971" fill="#010001"/>
<path d="M1440 311.971V84.6405C1439.91 83.9138 1439.84 89.281 1439.75 84.5827C1435.03 82.5844 1436.01 85.8213 1433 88.5214C1428.74 89.3223 1429.52 89.5783 1422.78 93.2858C1415.78 92.0224 1411.08 95.218 1404.3 90.3875C1397.76 88.2076 1391.07 81.9073 1384.33 88.059C1377.61 94.6896 1370.84 88.2489 1364.17 85.557C1358 87.1094 1350.42 84.657 1342.85 80.7926C1335.28 81.9569 1327.73 85.1441 1321.59 82.5101C1316.6 77.3493 1315.04 84.6653 1309.25 90.3463C1305.33 95.8373 1298.75 93.0877 1294.72 90.115C1288.98 88.7113 1283.3 88.9094 1278 88.0342C1272.7 95.4409 1267.78 83.6991 1263.57 80.8008C1254.22 76.5401 1249.88 65.7561 1237 71.5114C1231.4 68.8361 1224.47 62.156 1217.63 70.4298C1210.78 64.0965 1204.04 70.3802 1198.79 71.3381C1195.35 72.9482 1194.12 82.8321 1190.4 74.7235C1185.33 67.292 1177.64 78.3402 1172.29 74.6657C1161.78 83.1459 1154.35 60.8844 1143.64 65.1286C1135.86 60.8514 1127.16 69.4141 1118.4 64.2286C1109.64 63.1634 1100.83 72.5023 1092.83 65.2525C1086.03 68.3077 1079.42 72.8078 1072.81 66.7801C1066.19 68.7948 1059.57 71.6766 1052.76 68.3902C1037.15 74.2281 1021.55 63.6093 1005.95 68.4315C990.345 71.0161 974.743 62.9322 959.14 68.3902C952.972 67.4324 947.454 75.1777 941.917 69.9344C936.381 73.1216 930.835 72.7418 924.612 71.4784C917.602 81.0238 910.602 76.3337 903.592 71.4537C896.582 79.9669 889.581 68.2581 882.572 71.4867C877.163 71.7922 871.325 82.411 865.532 71.0078C859.739 70.6279 853.983 72.8739 848.739 72.172C845.701 80.7596 843.542 76.0364 839.414 74.6079C830.281 74.3354 824.699 76.5484 817.085 71.4537C803.981 71.8252 790.144 51.8097 775.85 53.6758C761.547 48.9197 746.786 49.8527 731.823 41.0505C726.314 36.765 719.405 36.9219 712.688 41.2074C705.971 44.0396 699.465 49.7949 694.77 38.7633C690.14 35.064 687.779 24.4865 682.91 28.5573C679.579 32.24 673.027 29.1766 669.485 24.792C663.555 28.516 657.799 24.9654 651.86 24.2223C647.669 14.3631 644.429 20.8698 640.11 21.8937C634.07 24.8416 628.469 20.8698 622.823 19.7138C617.177 15.2054 611.476 16.7412 605.244 18.7064C598.087 14.1071 590.931 20.5891 583.775 18.7394C576.619 25.915 569.462 13.1658 562.306 18.7147C555.47 17.3522 550.117 18.7065 543.674 20.2588C534.02 28.7968 524.054 22.0093 514.125 22.4387C507.774 29.1931 502.631 21.4478 497.909 27.8885C493.187 31.8932 488.904 32.9832 484.283 37.3182C475.415 39.4981 468.79 41.8597 456.921 43.5359C451.174 46.5663 445.427 39.011 439.68 43.5772C433.933 44.0231 428.186 45.7985 422.439 43.5442C415.575 43.6681 409.838 34.6925 404.2 46.3186C396.861 50.9922 398.453 48.8784 387.93 56.1613C381.03 54.5098 376.792 43.2717 370.533 51.9996C366.095 61.8422 362.05 45.7158 356.275 49.4481C348.918 45.5259 341.871 41.8514 334.798 47.4251C327.724 42.9166 320.622 49.506 313.146 46.6407C307.234 47.2765 300.901 48.8206 294.596 47.1609C288.291 49.0931 282.004 45.8397 276.202 46.0049C267.298 51.0335 259.611 40.489 251.86 35.2044C244.109 34.4034 236.294 24.8003 227.124 25.0232C215.447 25.3865 205.418 23.1571 194.839 21.7946C189.458 19.8955 181.231 9.64821 172.803 17.8311C164.374 9.84638 155.745 14.7595 149.54 18.9541C142.613 25.4526 136.692 10.6804 130.734 21.3322C124.777 22.191 118.765 23.2314 111.645 18.6734C103.024 14.9246 94.9989 17.9632 86.7719 10.4904C78.545 11.9355 70.1167 -1.37518 60.6726 6.18846C52.9032 7.69127 47.0831 5.58566 39.5516 3.00115C32.9719 -3.9019 25.5411 3.28187 18.8973 3.15801C12.5921 6.60128 6.29604 14.0411 0 3.15801V18.9211C0 29.6803 0 29.0692 0 37.4503V311.921H1440V311.971Z" fill="white"/>
<path d="M1440 312V133.35C1437.06 131.328 1434.06 132.087 1431.65 130.362C1424.2 123.355 1419.55 115.481 1409.79 118.593C1402.57 116.752 1394.83 116.282 1387.06 117.512C1379.29 108.714 1371.48 122.711 1364.15 118.205C1355.39 118.849 1345.46 118.304 1336.86 118.428C1331.3 110.546 1325.86 109.234 1320.49 112.741C1315.12 110.381 1309.82 106.312 1304.51 105.421C1295.08 99.627 1281.9 95.5829 1269.32 101.616C1256.74 101.897 1244.75 112.873 1237.71 112.931C1231.98 115.779 1228.19 116.2 1219.79 118.205C1210.86 129.867 1196.03 119.105 1187.89 117.751C1177.73 116.711 1171.7 107.377 1162.89 99.3546C1158.39 94.3779 1153.02 94.2706 1147.38 95.8965C1141.74 99.0988 1135.83 101.401 1130.26 96.4825C1123.43 93.4123 1116.35 93.6764 1109.33 97.0355C1102.3 85.4314 1095.31 105.338 1088.62 95.7892C1078.38 99.759 1068.59 90.375 1057.79 93.6351C1050.02 94.6172 1044.42 87.8908 1036.26 96.0203C1026.42 92.9583 1017.01 86.1329 1006.97 90.0367C999.848 88.2787 992.618 95.9955 985.38 89.8633C978.141 91.514 970.893 86.5125 963.746 90.2678C954.393 95.4756 945.041 89.4094 935.688 90.2347C924.24 95.7149 917.092 82.6748 906.934 97.25C900.794 105.264 893.912 95.6076 887.79 102.326C885.072 104.992 881.97 98.6118 879.316 105.941C874.09 98.6118 867.904 115.836 861.681 106.717C855.458 113.459 849.19 115.267 843.799 105.784C837.869 100.114 831.893 108.252 825.918 106.007C819.942 104.249 813.975 96.4907 808.045 105.932C800.294 104.1 794.382 95.6572 788.69 100.114C782.998 98.3725 777.516 97.8195 770.634 93.1482C762.38 88.9638 752.945 103.126 744.855 92.8345C737.104 94.3861 730.735 88.0477 724.146 80.6362C717.557 79.2579 710.748 71.8877 702.1 71.3925C695.667 62.4047 689.023 66.2095 682.736 69.6181C676.119 74.2565 673.667 54.0937 667.92 57.6014C660.59 55.1997 653.095 43.3892 645.279 48.7208C637.473 46.3109 629.356 41.9614 620.818 46.8144C611.721 50.6686 604.016 49.7278 595.167 50.0331C590.298 49.2326 584.926 47.128 580.03 49.8433C570.458 54.0937 562.258 58.8394 552.97 53.1033C547.049 55.4885 544.578 55.2079 540.057 55.8517C534.704 61.109 527.712 56.1983 522.038 56.1158C515.037 47.879 508.192 60.8614 501.521 56.0085C494.85 57.3538 488.343 53.1859 482.019 60.6633C477.526 77.9292 471.889 62.5038 467.844 68.4379C463.827 57.1474 460.99 68.7763 456.094 78.2345C448.892 74.9992 431.339 74.3967 423.359 77.8383C417.301 74.2729 411.243 70.4269 405.185 77.8383C399.127 78.1602 393.068 76.3858 387.01 77.8383C381.675 81.8659 376.038 77.467 370.748 77.9787C362.759 75.6265 357.936 73.7777 349.993 71.31C341.693 83.0131 332.779 76.5921 324.232 70.9304C316.279 67.9592 308.748 71.3183 301.28 66.127C295.808 66.9358 289.393 63.7253 283.023 64.6827C276.654 58.7403 270.321 66.3663 264.995 66.9771C259.349 71.8217 253.73 68.1738 248.166 68.669C240.662 61.0594 236.855 77.6486 228.527 74.991C220.41 80.6858 211.368 74.5536 204.285 69.5438C195.445 65.7061 193.587 65.9206 183.933 58.8889C174.434 66.5726 165.777 59.4666 156.149 51.3701C151.217 49.7029 146.165 56.2148 141.388 49.2655C136.932 47.3425 133.555 40.1457 129.016 44.2393C122.683 45.37 115.444 51.9396 108.242 43.4222C101.04 46.3026 93.8744 42.2833 87.679 47.1857C80.9344 49.9341 73.8971 46.9547 66.6858 50.4788C59.4746 51.2629 52.0803 52.6989 44.6219 51.3454C37.1636 52.5091 29.6412 51.007 22.1645 53.3922C14.6879 52.377 7.26616 46.7318 0 50.1899C0 49.9918 0 54.8365 0 65.8299V311.975H1440V312Z" fill="#FF6620"/>
</g>
<defs>
<clipPath id="clip0_521_814">
<rect width="1440" height="311.971" fill="white"/>
</clipPath>
</defs>
</svg>
