<svg width="150" height="150" viewBox="0 0 150 150" fill="none" xmlns="http://www.w3.org/2000/svg">
<path d="M34.6682 149.999H34.3023C16.6255 149.724 0.279865 133.378 0.00428943 115.701C-0.137863 106.527 4.825 76.3406 74.5937 73.1029L77.0153 72.9907L76.8987 75.4073C73.7009 144.278 44.2541 149.999 34.6682 149.999ZM72.3654 77.635C29.4292 80.0971 4.08366 94.2219 4.41534 115.632C4.65663 131.069 18.9298 145.346 34.3708 145.588C55.7266 145.885 69.9052 120.578 72.3654 77.635Z" fill="#FF6620"/>
<path d="M77.0137 77.0104L74.5922 76.8982C4.8198 73.6586 -0.139326 43.4743 0.00282644 34.2998C0.278402 16.6231 16.624 0.274947 34.3008 0.00186464C34.4174 0.00186464 34.542 0 34.6667 0C44.2483 0 73.6993 5.71911 76.8965 74.5938L77.0137 77.0104ZM34.7839 4.4117C34.6461 4.4117 34.5083 4.4117 34.3705 4.41357C18.9295 4.65298 4.65638 18.9306 4.4151 34.3691C4.08341 55.7767 29.429 69.904 72.3652 72.3661C69.9224 29.7054 55.959 4.4117 34.7839 4.4117Z" fill="#FF6620"/>
<path d="M115.336 150C105.755 150 76.3035 144.282 73.1063 75.4083L72.9897 72.9917L75.4113 73.1039C145.179 76.3416 150.143 106.528 150.001 115.702C149.725 133.379 133.379 149.725 115.703 150L115.336 150ZM77.639 77.6353C80.0818 120.293 94.0444 145.588 115.22 145.592C115.358 145.592 115.496 145.588 115.634 145.588C131.075 145.347 145.348 131.069 145.589 115.632C145.921 94.2223 120.575 80.0974 77.639 77.6353Z" fill="#FF6620"/>
<path d="M72.9912 77.0104L73.1078 74.5932C76.343 4.82511 106.338 -0.0778983 115.704 0.00190645C133.38 0.275612 149.726 16.6231 150.002 34.2999C150.144 43.4743 145.185 73.658 75.4122 76.8982L72.9912 77.0104ZM115.221 4.41174C94.0415 4.41174 80.087 29.7036 77.6399 72.3661C120.576 69.904 145.922 55.7774 145.59 34.3691C145.349 18.9306 131.075 4.65302 115.634 4.41361C115.497 4.41174 115.359 4.41174 115.221 4.41174Z" fill="#FF6620"/>
</svg>
