<svg width="150" height="150" viewBox="0 0 150 150" fill="none" xmlns="http://www.w3.org/2000/svg">
<path d="M50.6577 150C22.7244 150 0 116.357 0 75.002C0 33.6467 22.7244 0 50.6577 0C78.591 0 101.315 33.6467 101.315 75.002C101.315 116.357 78.591 150 50.6577 150ZM50.6577 4.17424C24.9028 4.17424 3.94841 35.9457 3.94841 75.002C3.94841 114.054 24.9028 145.826 50.6577 145.826C76.4126 145.826 97.3671 114.054 97.3671 75.002C97.3671 35.9457 76.4126 4.17424 50.6577 4.17424Z" fill="#FF6620"/>
<path d="M99.3406 150C71.4073 150 48.6829 116.357 48.6829 75.002C48.6829 33.6467 71.4073 0 99.3406 0C127.274 0 150 33.6467 150 75.002C150 116.357 127.274 150 99.3406 150ZM99.3406 4.17424C73.5857 4.17424 52.6312 35.9457 52.6312 75.002C52.6312 114.054 73.5857 145.826 99.3406 145.826C125.097 145.826 146.052 114.054 146.052 75.002C146.052 35.9457 125.098 4.17424 99.3406 4.17424Z" fill="#FF6620"/>
</svg>
