<svg width="150" height="150" viewBox="0 0 150 150" fill="none" xmlns="http://www.w3.org/2000/svg">
<path d="M17.4449 150C12.0385 150 7.63397 148.5 4.55038 145.355C-9.44578 131.066 9.86261 88.9708 48.5081 49.5202C87.1537 10.0745 128.393 -9.64601 142.38 4.64654C156.374 18.935 137.066 61.0258 98.4225 100.476C68.2898 131.236 36.5842 150 17.4449 150ZM129.419 4.79323C113.141 4.79323 83.036 21.1044 51.8525 52.9344C34.0735 71.0846 19.7705 90.5649 11.5806 107.786C3.8646 124.007 2.52231 136.456 7.8947 141.941C18.334 152.588 55.8571 137.102 95.0782 97.0622C134.299 57.022 149.473 18.7179 139.036 8.06062C136.897 5.87757 133.615 4.79323 129.419 4.79323Z" fill="#FF6620"/>
<path d="M132.555 150C113.416 150 81.7121 131.241 51.5774 100.477C12.9339 61.0263 -6.37385 18.9348 7.61963 4.64702C21.6084 -9.63188 62.8409 10.0654 101.492 49.5207C140.137 88.9712 159.446 131.067 145.45 145.355C142.369 148.5 137.961 150 132.555 150ZM20.581 4.79305C16.3824 4.79305 13.1049 5.87737 10.9639 8.0611C0.527253 18.7184 15.7006 57.0232 54.9216 97.0627C94.1427 137.102 131.663 152.589 142.105 141.941C147.477 136.457 146.135 124.008 138.419 107.786C130.229 90.5647 115.926 71.0851 98.1475 52.9349C66.9659 21.109 36.8606 4.79305 20.581 4.79305Z" fill="#FF6620"/>
</svg>
