<svg width="1107" height="534" viewBox="0 0 1107 534" fill="none" xmlns="http://www.w3.org/2000/svg">
<path d="M0 529.803V4.17139L150.739 94.1097V439.869L150.336 440.108L0 529.803ZM2.01781 7.36979V526.601L148.716 439.071V94.9033L2.01781 7.36979Z" fill="#FF6620"/>
<path d="M36.5943 26.3965H34.5762V507.573H36.5943V26.3965Z" fill="#FF6620"/>
<path d="M66.1057 44.0078H64.0879V489.966H66.1057V44.0078Z" fill="#FF6620"/>
<path d="M91.5959 59.2144H89.5781V474.76H91.5959V59.2144Z" fill="#FF6620"/>
<path d="M113.826 72.4785H111.809V461.492H113.826V72.4785Z" fill="#FF6620"/>
<path d="M133.385 84.1514H131.367V449.819H133.385V84.1514Z" fill="#FF6620"/>
<path d="M149.003 407.41L0.375 480.117L1.43953 481.477L150.067 408.77L149.003 407.41Z" fill="#FF6620"/>
<path d="M1.45015 433.934L0.572266 432.495L149.294 376.028L150.172 377.468L1.45015 433.934Z" fill="#FF6620"/>
<path d="M1.34009 386.473L0.689453 384.966L149.406 344.635L150.057 346.142L1.34009 386.473Z" fill="#FF6620"/>
<path d="M1.21228 339.007L0.808594 337.444L149.53 313.248L149.934 314.808L1.21228 339.007Z" fill="#FF6620"/>
<path d="M149.782 281.947L1.05469 290.007L1.19272 291.599L149.92 283.539L149.782 281.947Z" fill="#FF6620"/>
<path d="M0.966165 242.331L0.828125 243.923L149.555 251.983L149.693 250.391L0.966165 242.331Z" fill="#FF6620"/>
<path d="M149.53 220.726L0.808594 196.527L1.21228 194.964L149.934 219.163L149.53 220.726Z" fill="#FF6620"/>
<path d="M149.406 189.34L0.689453 149.005L1.34009 147.497L150.057 187.832L149.406 189.34Z" fill="#FF6620"/>
<path d="M149.294 157.942L0.572266 101.476L1.45015 100.04L150.172 156.507L149.294 157.942Z" fill="#FF6620"/>
<path d="M1.43791 52.6575L0.375 54.0181L149.09 126.614L150.153 125.254L1.43791 52.6575Z" fill="#FF6620"/>
<path d="M208.836 530.146V3.82861L210.566 5.21246L321.607 94.1816V439.801L321.314 440.036L208.836 530.146ZM210.859 7.71297V526.258L319.589 439.139V94.8317L210.859 7.71297Z" fill="#FF6620"/>
<path d="M236.6 26.3965H234.582V507.573H236.6V26.3965Z" fill="#FF6620"/>
<path d="M258.585 44.0078H256.566V489.966H258.585V44.0078Z" fill="#FF6620"/>
<path d="M277.561 59.2144H275.543V474.76H277.561V59.2144Z" fill="#FF6620"/>
<path d="M294.115 72.479H292.098V461.492H294.115V72.479Z" fill="#FF6620"/>
<path d="M308.688 84.1519H306.67V449.819H308.688V84.1519Z" fill="#FF6620"/>
<path d="M210.491 481.325L209.199 480.096L319.947 407.494L321.239 408.722L210.491 481.325Z" fill="#FF6620"/>
<path d="M320.165 376.018L209.426 432.502L210.52 433.843L321.259 377.359L320.165 376.018Z" fill="#FF6620"/>
<path d="M210.273 386.446L209.426 384.998L320.174 344.663L321.021 346.11L210.273 386.446Z" fill="#FF6620"/>
<path d="M210.114 338.996L209.574 337.456L320.322 313.261L320.867 314.796L210.114 338.996Z" fill="#FF6620"/>
<path d="M320.52 281.829L209.781 289.979L209.968 291.568L320.707 283.418L320.52 281.829Z" fill="#FF6620"/>
<path d="M209.828 242.393L209.643 243.981L320.392 252.043L320.578 250.455L209.828 242.393Z" fill="#FF6620"/>
<path d="M320.322 220.714L209.574 196.514L210.114 194.975L320.867 219.174L320.322 220.714Z" fill="#FF6620"/>
<path d="M320.174 189.308L209.426 148.977L210.273 147.525L321.021 187.86L320.174 189.308Z" fill="#FF6620"/>
<path d="M210.303 99.9781L209.209 101.319L319.961 157.782L321.055 156.441L210.303 99.9781Z" fill="#FF6620"/>
<path d="M319.947 126.477L209.199 53.8742L210.491 52.6499L321.239 125.248L319.947 126.477Z" fill="#FF6620"/>
<path d="M374.965 531.059V2.91504L445.015 94.281V439.689L444.868 439.881L374.965 531.059ZM376.988 8.62592V525.348L442.997 439.246V94.7277L376.988 8.62592Z" fill="#FF6620"/>
<path d="M392.799 26.3965H390.781V507.573H392.799V26.3965Z" fill="#FF6620"/>
<path d="M406.297 44.0078H404.279V489.966H406.297V44.0078Z" fill="#FF6620"/>
<path d="M417.953 59.2139H415.936V474.76H417.953V59.2139Z" fill="#FF6620"/>
<path d="M428.133 72.479H426.115V461.492H428.133V72.479Z" fill="#FF6620"/>
<path d="M437.081 84.1519H435.062V449.819H437.081V84.1519Z" fill="#FF6620"/>
<path d="M443.11 407.556L375.162 480.206L376.789 481.156L444.737 408.507L443.11 407.556Z" fill="#FF6620"/>
<path d="M443.217 376.121L375.182 432.584L376.639 433.682L444.674 377.218L443.217 376.121Z" fill="#FF6620"/>
<path d="M443.352 344.789L375.33 385.129L376.541 386.405L444.563 346.065L443.352 344.789Z" fill="#FF6620"/>
<path d="M443.471 313.208L375.428 337.38L376.255 338.835L444.298 314.663L443.471 313.208Z" fill="#FF6620"/>
<path d="M376.129 291.521L375.832 289.942L443.859 281.878L444.156 283.454L376.129 291.521Z" fill="#FF6620"/>
<path d="M443.859 252.095L375.832 244.028L376.129 242.452L444.156 250.516L443.859 252.095Z" fill="#FF6620"/>
<path d="M376.514 195.091L375.686 196.545L443.714 220.747L444.542 219.292L376.514 195.091Z" fill="#FF6620"/>
<path d="M376.531 147.583L375.32 148.859L443.351 189.193L444.562 187.916L376.531 147.583Z" fill="#FF6620"/>
<path d="M376.847 100.319L375.389 101.417L443.414 157.888L444.872 156.791L376.847 100.319Z" fill="#FF6620"/>
<path d="M376.897 52.827L375.271 53.7788L443.3 126.383L444.925 125.431L376.897 52.827Z" fill="#FF6620"/>
<path d="M495.211 533.975V0L528.871 94.5046L528.831 439.685L495.211 533.975ZM497.234 11.5414V522.437L526.853 439.362V94.6162L497.234 11.5414Z" fill="#FF6620"/>
<path d="M504.589 26.3965H502.571V507.573H504.589V26.3965Z" fill="#FF6620"/>
<path d="M510.856 44.0078H508.838V489.966H510.856V44.0078Z" fill="#FF6620"/>
<path d="M516.286 59.2139H514.268V474.76H516.286V59.2139Z" fill="#FF6620"/>
<path d="M521.014 72.479H518.996V461.492H521.014V72.479Z" fill="#FF6620"/>
<path d="M525.182 84.1519H523.164V449.819H525.182V84.1519Z" fill="#FF6620"/>
<path d="M497.181 480.97L495.27 480.452L526.907 407.849L528.819 408.368L497.181 480.97Z" fill="#FF6620"/>
<path d="M527.014 376.482L495.318 432.929L497.163 433.576L528.859 377.129L527.014 376.482Z" fill="#FF6620"/>
<path d="M526.919 345.07L495.25 385.385L496.964 386.226L528.633 345.911L526.919 345.07Z" fill="#FF6620"/>
<path d="M527.24 313.541L495.574 337.717L496.973 338.861L528.638 314.686L527.24 313.541Z" fill="#FF6620"/>
<path d="M527.509 281.884L495.871 289.96L496.491 291.478L528.129 283.402L527.509 281.884Z" fill="#FF6620"/>
<path d="M496.43 242.562L495.811 244.08L527.451 252.145L528.071 250.627L496.43 242.562Z" fill="#FF6620"/>
<path d="M497.093 195.111L495.693 196.254L527.332 220.454L528.732 219.31L497.093 195.111Z" fill="#FF6620"/>
<path d="M497.201 147.845L495.486 148.686L527.125 189.02L528.84 188.179L497.201 147.845Z" fill="#FF6620"/>
<path d="M497.066 100.375L495.221 101.021L526.862 157.488L528.707 156.842L497.066 100.375Z" fill="#FF6620"/>
<path d="M526.907 126.122L495.27 53.5233L497.181 53.0049L528.819 125.603L526.907 126.122Z" fill="#FF6620"/>
<path d="M1106.87 529.803L956.135 439.864V94.1053L956.538 93.866L1106.87 4.16699V529.803ZM958.158 439.071L1104.86 526.6V7.36939L958.158 94.8989V439.071Z" fill="#FF6620"/>
<path d="M1072.31 26.396H1070.29V507.573H1072.31V26.396Z" fill="#FF6620"/>
<path d="M1042.79 44.0073H1040.77V489.966H1042.79V44.0073Z" fill="#FF6620"/>
<path d="M1017.3 59.2139H1015.29V474.76H1017.3V59.2139Z" fill="#FF6620"/>
<path d="M995.065 72.4775H993.047V461.491H995.065V72.4775Z" fill="#FF6620"/>
<path d="M975.506 84.1509H973.488V449.818H975.506V84.1509Z" fill="#FF6620"/>
<path d="M1105.15 52.526L956.539 125.26L957.604 126.62L1106.21 53.8856L1105.15 52.526Z" fill="#FF6620"/>
<path d="M957.585 157.942L956.707 156.506L1105.42 100.04L1106.3 101.475L957.585 157.942Z" fill="#FF6620"/>
<path d="M957.477 189.339L956.826 187.832L1105.55 147.497L1106.2 149.004L957.477 189.339Z" fill="#FF6620"/>
<path d="M957.347 220.726L956.943 219.163L1105.66 194.963L1106.06 196.526L957.347 220.726Z" fill="#FF6620"/>
<path d="M1105.97 242.443L957.238 250.503L957.376 252.095L1106.1 244.035L1105.97 242.443Z" fill="#FF6620"/>
<path d="M957.052 281.717L956.914 283.308L1105.64 291.369L1105.78 289.777L957.052 281.717Z" fill="#FF6620"/>
<path d="M1105.66 339.007L956.943 314.807L957.347 313.248L1106.06 337.443L1105.66 339.007Z" fill="#FF6620"/>
<path d="M1105.55 386.473L956.826 346.142L957.477 344.634L1106.2 384.965L1105.55 386.473Z" fill="#FF6620"/>
<path d="M1105.42 433.934L956.707 377.467L957.585 376.027L1106.3 432.494L1105.42 433.934Z" fill="#FF6620"/>
<path d="M957.524 407.512L956.461 408.872L1105.18 481.469L1106.24 480.108L957.524 407.512Z" fill="#FF6620"/>
<path d="M898.037 530.146L896.306 528.762L785.266 439.793V94.1773L785.558 93.942L898.037 3.82422V530.146ZM787.289 439.143L896.018 526.261V7.71256L787.289 94.8313V439.143Z" fill="#FF6620"/>
<path d="M872.29 26.3965H870.271V507.573H872.29V26.3965Z" fill="#FF6620"/>
<path d="M850.307 44.0078H848.289V489.966H850.307V44.0078Z" fill="#FF6620"/>
<path d="M831.328 59.2139H829.311V474.76H831.328V59.2139Z" fill="#FF6620"/>
<path d="M814.776 72.479H812.758V461.492H814.776V72.479Z" fill="#FF6620"/>
<path d="M800.202 84.1519H798.184V449.819H800.202V84.1519Z" fill="#FF6620"/>
<path d="M786.917 126.476L785.631 125.248L896.379 52.6494L897.67 53.8737L786.917 126.476Z" fill="#FF6620"/>
<path d="M896.298 100.084L785.572 156.568L786.666 157.908L897.393 101.424L896.298 100.084Z" fill="#FF6620"/>
<path d="M786.7 189.308L785.857 187.86L896.605 147.525L897.453 148.977L786.7 189.308Z" fill="#FF6620"/>
<path d="M786.546 220.713L786.006 219.174L896.754 194.975L897.294 196.514L786.546 220.713Z" fill="#FF6620"/>
<path d="M896.95 242.335L786.211 250.485L786.398 252.073L897.137 243.924L896.95 242.335Z" fill="#FF6620"/>
<path d="M786.22 281.807L786.035 283.395L896.785 291.457L896.97 289.869L786.22 281.807Z" fill="#FF6620"/>
<path d="M896.754 338.996L786.006 314.796L786.546 313.261L897.294 337.456L896.754 338.996Z" fill="#FF6620"/>
<path d="M896.605 386.445L785.857 346.11L786.7 344.663L897.453 384.998L896.605 386.445Z" fill="#FF6620"/>
<path d="M786.725 375.937L785.631 377.278L896.383 433.741L897.477 432.4L786.725 375.937Z" fill="#FF6620"/>
<path d="M896.379 481.324L785.631 408.722L786.917 407.494L897.67 480.096L896.379 481.324Z" fill="#FF6620"/>
<path d="M731.906 531.059L661.852 439.693V94.281L661.998 94.0896L731.906 2.91504V531.059ZM663.875 439.246L729.888 525.348V8.62592L663.875 94.7277V439.246Z" fill="#FF6620"/>
<path d="M716.092 26.3965H714.074V507.573H716.092V26.3965Z" fill="#FF6620"/>
<path d="M702.592 44.0078H700.574V489.966H702.592V44.0078Z" fill="#FF6620"/>
<path d="M690.927 59.2139H688.908V474.76H690.927V59.2139Z" fill="#FF6620"/>
<path d="M680.758 72.479H678.74V461.492H680.758V72.479Z" fill="#FF6620"/>
<path d="M671.811 84.1519H669.793V449.819H671.811V84.1519Z" fill="#FF6620"/>
<path d="M729.985 52.7123L662.037 125.362L663.664 126.313L731.612 53.663L729.985 52.7123Z" fill="#FF6620"/>
<path d="M730.033 100.075L661.998 156.539L663.456 157.636L731.491 101.172L730.033 100.075Z" fill="#FF6620"/>
<path d="M730.241 147.662L662.215 188.005L663.426 189.281L731.452 148.938L730.241 147.662Z" fill="#FF6620"/>
<path d="M730.545 194.96L662.49 219.128L663.317 220.583L731.372 196.415L730.545 194.96Z" fill="#FF6620"/>
<path d="M663.015 252.095L662.717 250.516L730.754 242.452L731.046 244.028L663.015 252.095Z" fill="#FF6620"/>
<path d="M730.754 291.521L662.717 283.454L663.015 281.878L731.046 289.942L730.754 291.521Z" fill="#FF6620"/>
<path d="M663.152 313.394L662.324 314.849L730.357 339.046L731.185 337.592L663.152 313.394Z" fill="#FF6620"/>
<path d="M663.494 344.773L662.283 346.049L730.318 386.385L731.529 385.109L663.494 344.773Z" fill="#FF6620"/>
<path d="M663.514 376.095L662.057 377.192L730.092 433.656L731.55 432.559L663.514 376.095Z" fill="#FF6620"/>
<path d="M663.487 407.727L661.861 408.679L729.889 481.274L731.515 480.323L663.487 407.727Z" fill="#FF6620"/>
<path d="M611.663 533.975L577.998 439.47L578.038 94.2892L611.663 0V533.975ZM580.021 439.358L609.645 522.433V11.5414L580.021 94.6162V439.358Z" fill="#FF6620"/>
<path d="M604.305 26.3965H602.287V507.573H604.305V26.3965Z" fill="#FF6620"/>
<path d="M598.028 44.0078H596.01V489.966H598.028V44.0078Z" fill="#FF6620"/>
<path d="M592.598 59.2139H590.58V474.76H592.598V59.2139Z" fill="#FF6620"/>
<path d="M587.877 72.479H585.859V461.492H587.877V72.479Z" fill="#FF6620"/>
<path d="M583.709 84.1519H581.691V449.819H583.709V84.1519Z" fill="#FF6620"/>
<path d="M579.969 126.122L578.057 125.603L609.704 53.0049L611.611 53.5233L579.969 126.122Z" fill="#FF6620"/>
<path d="M609.731 100.322L578.027 156.77L579.872 157.417L611.576 100.969L609.731 100.322Z" fill="#FF6620"/>
<path d="M609.681 147.884L578.027 188.212L579.742 189.053L611.395 148.725L609.681 147.884Z" fill="#FF6620"/>
<path d="M610.04 195.257L578.371 219.436L579.769 220.58L611.439 196.402L610.04 195.257Z" fill="#FF6620"/>
<path d="M610.503 242.439L578.865 250.52L579.486 252.038L611.123 243.957L610.503 242.439Z" fill="#FF6620"/>
<path d="M579.365 282.042L578.746 283.56L610.387 291.626L611.006 290.107L579.365 282.042Z" fill="#FF6620"/>
<path d="M579.722 313.53L578.322 314.674L609.965 338.873L611.365 337.729L579.722 313.53Z" fill="#FF6620"/>
<path d="M579.791 344.84L578.076 345.68L609.724 386.013L611.438 385.173L579.791 344.84Z" fill="#FF6620"/>
<path d="M579.911 376.521L578.066 377.167L609.708 433.634L611.553 432.988L579.911 376.521Z" fill="#FF6620"/>
<path d="M609.704 480.97L578.057 408.368L579.969 407.849L611.611 480.452L609.704 480.97Z" fill="#FF6620"/>
</svg>
