<svg width="1439" height="241" viewBox="0 0 1439 241" fill="none" xmlns="http://www.w3.org/2000/svg">
<path d="M0.0136719 206.501C0.0136719 206.742 0.771754 210.568 0.771754 211.241C0.784712 211.027 0.0849497 207.129 1.43908 208.165C3.24675 207.495 12.9071 206.394 14.6111 207.802C19.5676 208.348 24.524 210.737 29.487 207.799C37.7284 210.254 47.8228 206.48 55.5718 207.298C59.3556 207.851 63.8586 206.411 68.0182 206.349C71.5947 207.146 73.4671 204.498 77.4258 207.847C80.2248 209.836 83.108 208.127 85.9199 207.795C91.926 207.019 97.9321 208.828 103.938 207.795C109.037 209.601 114.246 209.018 119.397 207.702C124.555 210.375 129.654 207.471 134.526 208.655C140.241 206.508 145.748 212.612 151.287 209.808C156.827 209.594 162.386 210.616 168.211 208.655C172.098 206.887 176.206 207.229 180.106 207.074C182.27 205.32 184.072 208.372 186.145 207.626C189.812 206.352 192.948 207.405 196.084 208.8C199.919 210.33 203.885 208.417 207.766 212.578C210.552 211.124 214.057 215.809 217.588 215.302C220.205 211.998 222.842 214.449 225.505 215.678C229.704 214.708 233.708 218.099 237.991 217.311C241.58 215.26 245.26 213.717 248.875 217.429C255.264 219.804 262.812 216.006 268.235 218.406C271.604 219.103 275.038 221.935 279.113 221.493C281.452 224.3 284.07 223.147 286.448 221.558C291.566 221.161 296.834 220.181 302.088 221.41C307.343 220.667 312.584 220.346 317.638 221.879C323.132 222.767 329.08 224.013 334.97 223.091C340.859 223.955 346.697 221.572 351.964 221.904C357.711 217.857 362.817 223.064 369.147 220.871C375.483 218.651 381.826 223.716 388.163 220.871C396.288 219.549 404.568 220.229 412.686 220.909C415.842 222.453 416.924 220.633 419.612 219.552C422.191 221.586 423.681 218.34 426.545 218.741C432.305 220.93 437.294 214.042 442.302 216.472C447.311 221.289 452.351 212.643 458.208 214.642C465.497 213.745 472.747 212.878 480.004 216.196C487.261 216.842 494.53 218.772 501.839 216.334C508.732 215.837 516.248 213.91 522.863 213.979C529.517 210.824 536.955 214.794 544.128 213.299C555.874 213.265 567.627 215.029 579.374 213.337C591.12 212.768 602.873 211.414 614.62 213.303C619.68 212.039 625.071 211.369 629.405 214.736C635.133 217.077 641.528 216.189 648.415 217.443C654.421 215.064 660.479 216.258 666.492 217.422C673.34 212.992 678.549 217.729 684.102 220.346C687.244 222.957 689.453 216.441 693.386 222.283C696.606 223.167 699.891 222.428 703.124 222.245C711.722 223.336 720.313 221.475 728.911 222.249C736.22 220.298 741.889 220.364 749.029 224.027C755.987 226.472 763.296 224.531 769.963 226.389C773.111 225.55 775.949 227.856 779.318 227.784C786.154 221.893 790.307 228.654 796.689 231.261C803.673 234.033 807.522 228.509 814.15 230.622C817.759 232.98 822.003 230.85 825.689 230.508C829.292 227.632 833.872 229.192 837.423 230.625C841.511 230.891 847.368 235.438 850.679 234.116C854.67 236.509 855.649 235.076 860.91 236.036C864.058 233.771 866.54 237.883 869.592 235.338C874.717 233.194 880.574 231.734 885.874 233.225C895.152 237.645 905.408 231.091 914.777 233.26C914.777 230.884 937.292 232.265 937.292 233.26C945.837 235.179 954.39 234.624 962.936 233.26C970.296 229.4 975.402 230.715 982.535 231.861C987.867 232.217 993.109 231.554 998.137 229.852C1001.48 230.988 1004.62 226.675 1008.06 227.324C1014.41 223.713 1021.82 230.594 1027.93 228.733C1034.76 230.097 1041.59 230.964 1048.45 228.467C1055.3 226.389 1062.18 225.619 1069.11 227.041C1074.66 226.289 1077.73 227.197 1082.86 228.63C1089.21 229.921 1095.69 227.573 1102.19 230.763C1108.02 229.576 1112.19 226.734 1118.25 231.865C1121.14 227.428 1122.94 232.942 1125.24 232.721C1129.14 233.211 1131.31 234.299 1136.38 236.053C1141.92 236.381 1147.37 234.482 1152.81 235.269C1158.25 233.097 1163.68 233.598 1169.2 233.94C1178.58 230.463 1187.82 230.087 1197.27 234.634C1201.78 233.432 1206.3 231.868 1210.81 234.627C1215.76 229.879 1221.46 231.278 1225.57 236.498C1227.34 238.011 1229.84 240.141 1231.39 238.163C1232.78 237.369 1233.67 240.359 1235.47 239.823C1240.71 239.92 1249.27 241.602 1255.11 240.77C1256.56 238.463 1259.15 242.278 1260.44 240.082C1261.75 236.132 1262.44 238.85 1263.65 238.857C1265.04 237.265 1266.53 238.094 1267.95 238.014C1269.51 234.731 1270.51 241.36 1272.36 236.709C1274.22 238.529 1276.67 236.164 1278.59 236.702C1283.65 234.72 1288.71 235.756 1293.77 236.706C1298.31 234.624 1300.79 237.842 1304.75 235.732C1307.38 232.296 1310.69 235.235 1313.55 234.972C1320.57 237.037 1328.01 229.679 1334.98 233.888C1337.45 229.724 1341.65 231.388 1343.93 232.252C1345.95 234.396 1346.07 231.015 1347.21 230.245C1348.82 228.181 1351.34 227.355 1353.79 226.34C1357.57 224.579 1367.3 227.19 1371.76 225.684C1376.13 225.795 1380.51 224.814 1384.88 225.691C1386.21 227.49 1388.39 226.295 1389.58 225.65C1390.3 226.703 1390.08 227.563 1390.63 225.011C1394.66 223.468 1397.44 222.093 1401.88 223.302C1405.57 220.75 1413.56 224.749 1416.32 221.265C1418.9 219.563 1417.68 222.384 1422.15 218.82C1425.12 217.992 1428.35 216.679 1431.35 218.803C1433.9 219.763 1436.45 221.099 1439 218.803C1439 216.583 1439 217.356 1439 211.493C1439 209.163 1439 201.118 1439 191.902C1439 183.788 1439 173.81 1439 163.538C1439 152.662 1439 141.606 1439 129.911C1439 118.213 1439 106.225 1439 94.5305C1439 82.8324 1439 71.4279 1439 60.9039C1439 50.5835 1439 40.0801 1439 32.5393C1439 25.2056 1439 16.9672 1439 12.9482C1439 11.3944 1439 4.99298 1439 5.63865C1436.76 4.81343 1434.28 7.769 1432.99 5.36587C1429.9 4.95844 1426.79 4.53031 1423.69 5.38315C1422.48 5.77677 1418.88 3.98822 1417.61 5.48328C1415.98 6.50185 1416.47 8.64258 1414.83 7.34778C1413.5 7.32361 1410.22 9.15013 1408.66 7.59638C1402.28 8.55625 1395.78 9.99259 1389.1 8.14881C1383.97 8.94295 1379.79 2.41031 1374.84 6.72283C1369.45 6.23944 1363.91 7.01975 1358.5 6.75734C1354.44 5.36242 1350.38 6.66066 1346.32 6.75734C1339.85 7.49278 1337.2 8.1799 1331.86 5.04478C1328 3.89155 1323.54 4.47507 1319.34 1.39174C1313.09 -0.576343 1305.58 -0.0653503 1298.91 0.563056C1288.96 0.418039 1280.41 4.80654 1270.21 3.31839C1265.28 1.62653 1263.28 6.21181 1259.63 5.53852C1256.35 8.38016 1253.24 5.51089 1248.73 8.85664C1245.24 5.4004 1235.55 5.99775 1226.63 8.539C1217.72 8.77724 1209.58 9.00512 1209.19 10.072C1202.57 12.6582 1195.67 12.7514 1189 12.3509C1182.34 14.861 1175.9 13.0932 1170.2 16.2421C1165.54 22.5849 1161.66 18.7523 1156.16 17.7752C1150.76 18.4864 1145.11 15.6517 1139.55 17.6129C1133.99 18.1619 1128.52 19.1183 1123.48 18.7523C1117.68 19.0838 1113.02 18.5313 1107.32 17.8373C1102.23 12.7306 1096.35 15.524 1090.96 17.057C1087.77 17.9823 1083.84 20.2128 1081.03 18.2068C1078.66 18.7799 1077.68 20.9863 1074.88 19.1874C1069.79 19.0734 1064.38 20.5512 1059.3 19.1874C1054.41 14.899 1050.07 18.3725 1045.31 17.6233C1040.45 18.7592 1035.88 20.8343 1031.06 15.7967C1022.74 15.814 1014.06 14.8783 1005.83 14.8852C997.936 15.158 990.193 10.0133 982.256 12.5891C976.814 12.3094 971.644 11.9952 966.175 12.2922C959.755 11.2322 953.496 12.3025 947.088 10.2205C941.918 6.52948 937.136 10.6763 931.979 8.11085C925.759 4.18504 919.04 9.57827 913.079 9.52993C908.226 11.498 904.52 10.9145 899.311 10.2032C892.255 15.2857 884.584 11.6983 877.632 10.3413C874.01 8.82901 870.661 11.4531 867.032 11.6154C864.35 11.3427 861.409 12.7238 858.694 11.5809C852.532 10.1998 846.345 15.8623 840.17 11.5878C833.995 9.6128 827.847 11.8847 821.763 12.3716C820.869 11.6775 822.43 12.4095 821.594 15.6206C817.137 16.1075 808.967 17.0432 804.192 15.7104C797.965 11.9469 793.981 16.432 788.765 17.7545C781.1 17.0156 771.084 21.4973 762.24 21.9392C756.959 23.8003 750.104 20.6237 744.675 21.9047C738.008 19.2702 731.432 20.8516 725.056 22.4848C722.419 23.8417 720.171 21.335 717.566 23.821C712.811 20.527 708.087 25.9583 703.293 25.3471C697.695 28.8413 692.252 24.1732 686.57 26.7697C681.763 25.2056 680.564 31.0373 677.862 30.4607C676.087 32.8017 674.791 30.8647 671.772 32.9881C669.278 29.1659 665.604 36.3442 662.999 32.9191C655.237 31.7658 647.773 30.9648 640.089 32.2285C633.552 29.7356 627.753 33.4197 621.391 34.1413C618.76 30.3571 616.693 32.1249 614.192 34.9838C609.89 35.4569 604.765 35.3705 600.742 36.0853C597.444 38.7577 595.403 36.144 591.639 37.1522C585.114 39.759 579.996 33.91 573.763 40.0629C566.733 43.7746 557.675 42.8734 550.354 40.4323C542.722 40.7431 535.322 41.4267 527.962 39.8902C520.608 40.6706 513.287 45.6805 505.823 41.368C500.251 38.0913 493.96 42.2588 488.168 41.8342C479.648 42.1414 472.048 36.3166 463.456 39.8074C456.964 38.6507 450.472 39.0339 443.974 39.8212C437.482 40.7638 430.983 40.4047 424.491 39.8039C418.608 38.7267 412.725 40.1699 406.842 39.8177C400.959 38.4401 395.076 39.9489 389.193 39.7866C385.921 39.2584 384.068 39.614 381.237 40.4323C377.336 42.1104 372.289 38.9131 368.324 40.491C360.497 40.8846 349.865 38.1707 342.783 41.3335C339.408 42.8527 337.645 43.0806 333.823 43.7608C329.236 45.028 324.286 46.3124 319.77 45.3249C312.546 46.3746 307.2 44.2822 300.404 43.8989C295.033 44.0888 289.299 42.5213 283.616 43.6918C277.928 42.8976 272.291 42.245 267.108 44.7932C260.402 44.99 253.43 44.4514 246.575 47.2378C244.496 47.3413 242.163 45.2559 240.213 47.4069C239.209 47.5554 238.917 47.8178 238.029 48.063C235.716 47.3724 234.362 51.0116 231.609 48.7846C225.667 49.3094 219.208 47.9145 213.279 48.7881C210.467 48.8502 207.908 49.3129 205.122 48.0388C201.747 50.2348 198.131 49.7134 194.749 48.0595C190.661 50.9081 186.812 50.5973 182.737 48.6637C178.195 53.0798 174.23 50.4696 169.837 49.9862C163.721 48.8882 157.235 48.8467 151.19 48.2218C143.273 49.2024 134.934 47.2757 126.9 47.362C118.484 49.1264 109.705 49.2921 101.385 47.2239C91.8936 46.454 83.7754 47.4035 73.9984 45.9499C69.029 42.6766 64.8888 44.334 59.9906 47.4311C56.4206 47.9318 52.6498 45.5735 49.0668 47.3793C40.7283 48.6258 31.9815 45.1903 24.0251 48.0526C16.1919 50.0449 8.40413 50.2866 0.117379 50.1415C0.0849838 47.8592 0.0460673 52.2132 0.0136719 50.1415C0.0136719 45.867 0.0136719 52.5723 0.0136719 58.8011C0.0136719 62.0467 0.0136719 72.9575 0.0136719 81.1371C0.0136719 91.3401 0.0136719 100.739 0.0136719 111.68C0.0136719 122.622 0.0136719 134.017 0.0136719 144.958C0.0136719 155.755 0.0136719 166.863 0.0136719 175.502C0.0136719 184.382 0.0136719 193.784 0.0136719 197.838C0.0136719 204.27 0.0136719 203.984 0.0136719 206.501Z" fill="white"/>
<path d="M0.00652496 188.56C3.43396 188.971 6.51148 189.658 10.0815 189.386C17.8499 191.385 26.8688 190.011 35.0065 191.454C41.2847 191.164 45.399 194.99 50.5564 194.872C55.3833 194.824 57.2623 192.78 63.4044 197.489C71.0433 197.299 80.2306 197.669 87.7269 197.593C91.6079 199.136 93.9469 199.892 98.0481 198.905C104.793 196.937 111.311 200.179 117.913 198.201C123.77 196.457 128.338 197.593 134.597 196.084C141.581 198.663 149.285 195.556 156.185 196.253C162.023 195.487 167.932 196.712 173.866 196.84C179.801 199.765 185.762 194.558 191.703 196.788C200.683 197.759 212.534 195.352 220.483 198.128C222.92 197.966 224.896 198.95 227.669 200.245C229.697 200.031 231.388 202.53 233.409 201.066C235.444 202.303 237.88 205.196 239.791 202.427C241.774 199.91 243.517 202.52 245.428 204.257C249.192 204.229 255.626 207.157 259.552 204.326C263.725 202.423 268.772 201.543 272.737 205.186C278.05 209.108 283.11 207.602 288.3 209.06C292.984 209.108 298.174 211.677 303.442 209.971C308.709 209.218 314.054 208.797 319.056 210.368C327.745 211.587 336.653 210.696 345.951 211.97C349.489 210.51 352.579 209.405 356.136 211.231C358.514 212.285 360.937 211.998 363.315 211.249C368.265 213.548 373.221 210.04 378.172 211.249C382.811 209.139 388.726 212.927 393.151 211.149C396.501 211.656 395.775 206.684 397.861 209.322C399.306 207.378 401.263 208.448 402.999 208.576C407.431 204.713 411.979 210.306 415.77 207.136C420.201 209.446 423.454 206.342 428.378 205.59C433.535 201.788 437.345 203.57 442.684 203.625C449.772 203.497 456.97 205.372 464.071 203.677C464.071 202.99 481.254 199.937 481.254 203.677C484.947 204.637 489.903 205.458 493.428 203.539C498.158 203.88 501.818 204.074 506.801 200.338C510.52 200.403 513.96 200.431 517.673 198.998C522.824 200.873 529.361 197.244 534.583 198.86C543.453 200.728 554.28 197.966 562.314 199.882C566.577 199.464 570.393 200.497 575.447 202.347C578.537 205.607 579.529 205.189 582.477 201.232C586.558 202.634 591.418 196.788 595.649 200.932C604.169 200.887 612.695 199.848 621.215 200.88C626.554 199.171 629.294 199.917 633.726 202.492C637.056 205.465 637.795 207.133 641.333 203.677C648.531 202.993 654.673 206.252 661.794 205.051C667.975 209.861 674.162 209.488 680.343 205.054C689.096 205.776 696.282 199.361 704.206 206.349C709.914 206.069 712.894 208.673 717.922 211.794C725.898 215.906 737.23 214.567 746.773 213.265C750.544 212.243 755.565 214.836 758.753 214.864C761.157 218.368 760.36 216.238 763.768 216.093C766.71 212.999 769.509 217.526 772.372 216.818C774.821 217.498 777.011 220.661 779.557 218.206C783.464 219.49 787.656 218.869 791.233 217.616C793.546 219.242 795.03 216.386 797.135 216.759C797.291 215.475 797.854 217.039 798.833 216.055C798.833 214.101 800.401 215.244 800.401 215.903C807.042 216.538 819.086 212.616 825.909 216.055C830.431 220.733 835.887 218.762 840.001 218.268C844.18 221.88 844.925 217.288 847.575 222.664C851.093 222.228 854.851 223.886 859.658 224.328C863.837 223.969 870.252 220.827 875.007 223.606C878.778 224.404 881.486 226.489 885.51 224.328C891.639 222.809 897.801 223.713 903.93 224.328C909.969 225.754 914.517 219.193 920.665 222.94C924.728 221.835 927.527 221.162 930.98 222.28C935.127 223.758 938.891 217.626 943.375 220.868C946.089 218.765 947.022 220.436 949.381 220.582C950.43 222.477 951.817 220.43 953.54 219.456C954.298 222.574 955.063 219.56 955.821 219.511C965.831 219.377 976.036 216.072 985.476 216.583C990.121 208.811 995.395 216.407 1000.75 214.708C1006.1 213.161 1011.52 214.121 1016.49 214.001C1022.56 211.908 1028.61 216.887 1034.68 214.001C1038.27 216.676 1043.09 216.024 1046.62 214.052C1048.94 218.002 1049.43 216.103 1051.56 212.758C1053.42 210.113 1057.63 212.53 1059.69 212.084C1062.18 216.559 1064.36 213.424 1066.54 211.663C1067.25 215.824 1068.3 213.783 1069.72 209.985C1070.79 208.935 1071.85 208.497 1072.92 209.664C1076.92 209.339 1080.28 207.775 1084.33 208.476C1090.59 207.758 1096.68 207.188 1102.84 209.301C1107.33 209.93 1112.25 210.579 1116.39 211.228C1119.59 210.8 1122.47 212.688 1125.94 213.382C1130.15 211.615 1134.27 213.742 1138.56 214.864C1141.6 211.497 1144.73 217.854 1147.69 215.782C1150.52 217.781 1152.9 214.905 1155.86 217.343C1161.05 219.877 1166.55 218.095 1172.08 217.588C1177.61 219.076 1183.16 216.431 1188.43 217.547C1197.51 220.695 1205.97 218.879 1214.08 222.864C1216.76 228.292 1219.46 223.858 1222.16 224.88C1223.6 226.565 1224.94 228.008 1226.17 226.306C1228.22 224.121 1231.04 227.049 1233.11 226.393C1238.15 226.413 1243.32 226.662 1248.33 226.496C1253.61 229.362 1254.89 227.283 1258.95 228.495C1262.54 229.317 1264.21 229.721 1268.26 230.553C1270.85 228.361 1272.4 230.149 1274.78 229.987C1276.76 232.891 1278.76 225.353 1280.66 229.718C1280.59 228.827 1282.81 230.619 1284.54 227.995C1286.82 229.037 1286.47 230.436 1287.23 225.101C1294.99 221.386 1303.67 223.402 1311.69 224.338C1315.51 224.618 1317.76 221.894 1320.07 221.572C1322.41 215.851 1325.38 218.686 1328.08 217.612C1330.43 220.184 1332.1 213.583 1335.17 213.797C1340.56 211.214 1347.65 211.711 1353.71 212.64C1357.01 212.699 1360.43 212.063 1363.54 211.867C1366.41 211.863 1369.42 207.962 1372.39 210.848C1376.74 212.398 1379.27 209.25 1382.94 208.538C1387.08 208.038 1392.04 201.978 1396.9 204.965C1400.44 205.082 1401.25 202.762 1404.26 206.284C1408.87 207.219 1415.18 207.568 1420 206.422C1425.75 208.138 1431.57 204.73 1437.31 206.453C1437.99 205.483 1438.44 205.99 1438.99 206.335C1438.99 205.275 1438.99 201.059 1438.99 196.315C1438.99 193.747 1438.99 178.44 1438.99 170.471C1438.99 160.759 1438.99 147.79 1438.99 135.132C1438.99 114.878 1438.99 93.2741 1438.99 74.6394C1438.99 65.3238 1438.99 57.2788 1438.99 49.4583C1438.99 43.0464 1438.99 38.8582 1438.99 31.9734C1438.99 26.77 1438.99 26.0657 1438.99 25.4235C1437.76 25.0195 1436.69 26.6008 1436.03 25.3544C1429.68 23.0203 1425.78 22.6543 1420.67 22.9271C1417.84 24.2875 1415.01 21.615 1411.74 21.0557C1406.76 20.9866 1402.15 18.3073 1397.18 20.5619C1390.61 20.9763 1383.9 17.8999 1378 17.4165C1372.5 12.2442 1367.15 14.4954 1360.85 13.6357C1353.87 13.3111 1347.05 13.1833 1340.28 13.7427C1333.51 15.0617 1326.78 18.1243 1319.96 14.8718C1311.22 15.7557 1302.91 14.0465 1293.8 15.7142C1289.33 14.4678 1284.38 15.7971 1279.98 15.766C1273.71 15.2205 1267.69 19.2119 1261.41 18.3142C1256.94 19.1566 1253.22 20.2581 1248.68 19.1394C1242.81 19.8748 1234.9 24.0769 1231.67 22.164C1229.85 23.0549 1230.77 25.4442 1227.35 27.982C1226.19 27.3018 1224.15 28.4964 1222.87 28.1028C1218.88 27.2224 1214.87 28.859 1210.88 28.1063C1206.31 27.8957 1199.87 27.3328 1195.81 28.5033C1191.75 29.6186 1189.4 30.9099 1184.82 32.1011C1179.59 30.8512 1172.75 34.1728 1167.19 32.9229C1164.93 33.2751 1163.65 33.1024 1161.82 32.5293C1160.51 36.1685 1159.73 30.0951 1158.1 31.5245C1155.04 31.6074 1151.26 29.1766 1148.05 30.9134C1139.59 30.0882 1131.36 32.6156 1123.41 30.6924C1115.46 29.3804 1107.8 31.2 1100.49 27.1084C1097.16 25.2301 1094.11 24.909 1090 23.9388C1085.04 22.0777 1077.76 21.47 1072.66 23.9422C1069.26 24.3496 1066.24 20.7173 1062.74 24.6673C1058.38 23.521 1054.31 24.6915 1050.05 25.5443C1042.76 28.5689 1035.25 24.108 1027.76 26.0415C1025.67 29.4701 1022.92 29.6393 1020.9 25.9241C1017.98 24.0561 1017.48 25.6513 1014.06 24.6569C1008.86 26.5525 1002.92 19.571 998.058 22.9444C992.473 24.2737 986.914 24.3945 981.258 21.4424C975.602 20.7277 969.848 17.3578 963.868 21.2214C963.868 21.3595 947.554 21.0971 931.239 21.2214C914.925 17.8446 898.604 17.8791 898.604 21.2214C893.291 22.4472 885.076 20.5585 880.074 21.2042C876.679 20.2823 876.342 25.1231 873.141 24.0976C870.913 21.4458 866.099 25.8447 863.637 23.9767C860.19 24.909 857.099 23.6833 853.827 24.3773C851.113 21.218 848.955 26.2659 846.072 25.5201C841.219 28.7623 837.759 27.1498 833.198 27.7852C827.729 25.0644 820.868 24.6362 815.115 28.0786C808.895 28.531 803.154 28.5344 797.654 30.3022C792.043 35.9406 786.302 32.7399 780.432 32.2289C774.562 32.8159 768.569 35.0015 762.453 32.2358C756.816 30.72 751.296 31.0688 745.821 32.2323C740.352 31.894 734.93 30.9928 729.5 33.1853C722.12 32.5017 714.702 32.4982 707.491 34.6216C702.579 33.6756 697.234 34.8564 692.582 36.3826C686.777 35.4365 681.788 38.506 676.171 37.2285C669.685 40.1081 662.733 39.2553 655.982 39.642C648.654 36.1167 642.402 44.2894 634.756 41.1888C627.759 49.1717 614.833 41.8414 610.285 43.5989C606.339 50.4665 601.914 43.3606 595.422 47.0724C589.189 44.3896 581.693 45.9951 575.842 47.4694C569.687 49.3063 565.313 54.4234 558.873 50.9947C554.416 49.876 549.025 47.7733 544.768 52.0133C541.891 50.6598 539.805 51.5368 536.715 53.4048C530.696 53.9987 524.417 53.8536 518.087 54.4268C511.757 53.7431 505.362 54.8619 499.117 54.2991C497.542 53.1562 495.456 53.9124 493.953 54.1471C492.229 53.0215 491.75 55.5179 490.35 53.0215C487.577 52.3793 483.547 51.5368 480.561 52.2585C474.801 51.0396 468.632 52.2619 462.834 52.1998C457.67 50.5873 452.435 51.5368 447.284 52.2309C443.157 52.6072 440.591 50.5252 436.606 50.7669C433.529 48.7884 431.488 51.4781 428.391 49.9589C423.383 50.905 417.882 47.6801 412.595 48.0185C407.736 48.2153 405.643 49.0853 401.341 49.3857C397.933 50.6702 394.913 50.7358 391.285 50.0867C387.884 50.0452 386.86 50.8359 383.925 51.5783C381.69 51.0155 377.815 49.7483 375.398 51.5058C369.729 50.8843 364.047 53.9883 358.384 51.5023C352.151 51.1328 347.344 49.7414 341.215 49.3892C339.394 48.1048 335.546 48.6848 333.79 49.5032C332.785 49.1475 331.392 50.4285 330.602 50.8152C327.933 51.4954 326.442 53.3357 323.287 52.2205C317.994 51.8752 311.981 53.4428 306.364 52.7246C300.409 51.119 294.967 53.5809 288.864 52.1894C280.525 54.7721 273.573 50.4389 265.532 53.4842C260.524 54.9516 254.648 53.6603 249.879 55.0932C248.473 55.0138 247.67 53.7121 246.115 56.2015C244.113 56.6331 241.625 55.2935 239.571 56.3189C233.033 55.5075 226.574 57.7242 220.14 56.8576C213.803 58.2559 207.681 55.801 201.15 56.3224C194.962 54.9413 188.768 54.8308 182.574 56.2671C176.38 57.4894 170.186 54.4579 164.005 56.2913C157.098 57.0751 151.151 59.202 144.458 58.3216C139.151 59.0708 133.8 59.7786 128.467 59.7993C121.703 59.7406 114.673 59.4644 107.877 59.8891C102.843 60.2378 101.132 61.139 97.1475 62.3786C93.4026 62.0574 89.1782 63.48 84.7724 63.9081C79.466 63.0898 74.8205 62.1783 69.6372 63.1865C63.4562 63.4386 57.0225 64.6781 50.8804 63.152C43.4424 61.5223 36.9244 61.9297 29.3309 61.8296C24.5169 62.9207 3.07761 61.3047 3.52467 64.4779C2.45562 65.5931 1.23751 63.2763 0 64.7472C0 65.6 0 65.5482 0 70.7619C0 74.0973 0 80.3986 0 86.4617C0 92.3556 0 100.401 0 108.325C0 120.209 0 133.085 0 144.969C0 156.926 0 168.918 0 175.671C0.00647909 182.729 0.00652496 188.781 0.00652496 188.56Z" fill="#FF6620"/>
</svg>
