<svg width="276" height="187" viewBox="0 0 276 187" fill="none" xmlns="http://www.w3.org/2000/svg">
<path d="M242.5 67C261.002 67 276 52.0015 276 33.5C276 14.9985 261.002 0 242.5 0C223.998 0 209 14.9985 209 33.5C209 52.0015 223.998 67 242.5 67Z" fill="white"/>
<path d="M138 92V186.711C162.808 185.156 182.449 164.555 182.449 139.356C182.451 114.156 162.808 93.5546 138 92Z" fill="#FF6620"/>
<path d="M182.451 92V186.711C207.259 185.156 226.901 164.555 226.901 139.356C226.9 114.156 207.257 93.5546 182.451 92Z" fill="#FF6620"/>
<path d="M21.2668 19.0454L0 40.3123L75.3267 115.639L96.5935 94.3721L21.2668 19.0454Z" fill="white"/>
<path d="M75.4186 18.9997L0.0812988 94.3264L21.3481 115.596L96.6854 40.2695L75.4186 18.9997Z" fill="white"/>
</svg>
