<svg width="590" height="467" viewBox="0 0 590 467" fill="none" xmlns="http://www.w3.org/2000/svg">
<g clip-path="url(#clip0_509_785)">
<path d="M362.45 20.0955L362.005 20.333C272.1 68.5328 163.252 100.822 77.9452 104.599L77.5266 104.619L77.3391 104.998C74.7169 110.301 71.9143 115.81 69.026 121.49C51.6402 155.683 31.9359 194.434 29.1603 230.119C28.1068 243.693 30.7623 256.021 33.58 269.071C35.5789 278.347 37.648 287.938 38.2283 297.964C40.2488 332.849 33.1443 370.357 26.2692 406.631C23.8813 419.238 21.6237 431.15 19.7744 442.798L19.5854 443.996L20.7051 443.676C76.2641 427.707 120.582 418.846 182.699 420.836C219.264 422.005 271.256 419.545 307.53 409.138C351.531 396.51 405.094 362.615 420.463 352.53C474.316 317.184 516.98 301.029 572.477 285.08L573.599 284.757L572.81 283.841C542.396 248.572 515.582 211.042 489.653 174.748C451.837 121.81 412.731 67.0693 362.834 20.4542L362.45 20.0955ZM78.4513 106.099C163.75 102.235 272.402 70.0129 362.246 21.9289C411.846 68.3656 450.803 122.893 488.483 175.635C514.206 211.648 540.801 248.874 570.937 283.927C515.856 299.813 473.302 316.024 419.662 351.23C404.333 361.295 350.922 395.093 307.112 407.663C270.994 418.028 219.168 420.476 182.712 419.31C120.833 417.33 76.5799 426.077 21.4096 441.885C23.2199 430.638 25.4025 419.123 27.7059 406.957C34.5971 370.588 41.7227 332.984 39.6904 297.906C39.101 287.753 37.0223 278.101 35.0073 268.768C32.217 255.833 29.5843 243.613 30.6256 230.271C33.3748 194.899 53.004 156.29 70.3268 122.225C73.1436 116.681 75.8833 111.291 78.4513 106.099Z" fill="url(#paint0_linear_509_785)"/>
<path d="M333.137 35.9886L332.343 37.2474C369.055 62.7784 396.75 91.5838 414.659 122.868C424.167 145.615 433.463 168.918 442.245 192.037L442.345 192.222C470.359 230.576 500.094 270.353 522.867 300.716L524.012 299.797C501.258 269.454 471.556 229.726 443.565 191.402C434.79 168.301 425.499 145.013 415.954 122.193C397.884 90.6234 370.039 61.6477 333.137 35.9886Z" fill="url(#paint1_linear_509_785)"/>
<path d="M304.797 47.8431L304.099 49.1669C336.7 68.2728 362.933 97.201 379.958 132.822C382.834 141.607 386.032 150.91 389.419 160.764C394.411 175.296 399.573 190.32 403.846 204.11C404.828 207.287 406.185 210.281 407.869 213.012C432.781 253.296 454.728 288.286 474.966 319.985L476.18 319.158C455.946 287.47 434 252.486 409.093 212.208C407.475 209.59 406.18 206.719 405.233 203.675C400.955 189.864 395.791 174.826 390.791 160.285C387.409 150.438 384.211 141.136 381.303 132.267C364.101 96.2613 337.662 67.1035 304.797 47.8431Z" fill="url(#paint2_linear_509_785)"/>
<path d="M280.776 58.263L279.646 59.2083C321.657 113.207 349.772 178.719 376.959 242.078C392.099 277.353 407.753 313.835 425.56 347.662L426.841 346.948C409.066 313.174 393.422 276.729 378.298 241.48C351.066 178.03 322.908 112.423 280.776 58.263Z" fill="url(#paint3_linear_509_785)"/>
<path d="M255.719 67.6279L254.382 68.2227C276.4 119.943 297.294 173.265 317.502 224.831C337.055 274.741 357.278 326.341 378.504 376.464L379.84 375.877C358.623 325.778 338.407 274.181 318.855 224.285C298.646 172.706 277.747 119.375 255.719 67.6279Z" fill="url(#paint4_linear_509_785)"/>
<path d="M229.841 76.4411L228.458 76.9088C248.407 137.386 267.331 197.675 285.631 255.976C300.314 302.758 315.496 351.135 331.215 399.628L332.601 399.17C316.885 350.688 301.705 302.316 287.023 255.53C268.718 197.223 249.793 136.929 229.841 76.4411Z" fill="url(#paint5_linear_509_785)"/>
<path d="M203.513 84.2426L202.093 84.5805L214.449 136.37C236.966 230.742 258.228 319.879 281.041 414.008L282.46 413.665C259.649 319.541 238.383 230.402 215.869 136.032L203.513 84.2426Z" fill="url(#paint6_linear_509_785)"/>
<path d="M176.732 91.0311L175.286 91.2416C192.73 206.166 209.694 313.413 227.145 419.122L228.588 418.892C211.137 313.192 194.174 205.95 176.732 91.0311Z" fill="url(#paint7_linear_509_785)"/>
<path d="M154.277 96.267L152.836 95.9736C140.257 170.212 151.674 249.075 162.714 325.345C167.221 356.485 171.881 388.688 174.659 419.427L176.117 419.314C173.336 388.531 168.671 356.307 164.162 325.144C153.139 249.002 141.744 170.259 154.277 96.267Z" fill="url(#paint8_linear_509_785)"/>
<path d="M136.121 98.3717C119.329 121.069 105.231 154.055 100.206 182.409C97.7558 196.205 98.7257 211.132 102.992 225.58C104.394 230.324 105.772 235.084 107.144 239.845C109.698 248.667 112.338 257.79 115.107 266.698C118.967 279.098 120.907 291.609 120.875 303.884C120.806 332.892 120.318 363.502 119.843 393.104C119.687 402.738 119.536 412.203 119.401 421.382L120.868 421.435C121.001 412.259 121.154 402.791 121.305 393.158C121.778 363.552 122.27 332.934 122.339 303.918C122.37 291.478 120.405 278.806 116.5 266.253C113.736 257.365 111.098 248.247 108.544 239.434C107.168 234.671 105.787 229.91 104.385 225.166C100.187 210.948 99.24 196.272 101.638 182.719C106.627 154.578 120.617 121.844 137.28 99.3188L136.121 98.3717Z" fill="url(#paint9_linear_509_785)"/>
<path d="M107.572 102.843C100.939 112.744 78.4347 148.012 67.2943 186.324C62.1742 203.93 61.9936 223.333 66.7705 242.428C70.0572 255.571 73.5404 268.877 77.1203 281.975C79.6271 291.15 80.545 300.456 79.8494 309.637C76.8153 349.574 73.4322 390.079 69.7881 430.032L71.2443 430.209C74.8887 390.247 78.2739 349.731 81.3065 309.788C82.0177 300.426 81.0809 290.94 78.5271 281.591C74.9488 268.497 71.4718 255.204 68.1881 242.071C63.4796 223.245 63.6559 204.131 68.7004 186.787C79.7782 148.69 102.177 113.582 108.779 103.732L107.572 102.843Z" fill="url(#paint10_linear_509_785)"/>
<path d="M538.672 242.362C478.482 259.665 440.854 279.694 388.439 312.911C361.907 329.726 320.629 350.56 292.691 356.574C272.131 361.001 246.179 361.202 221.08 361.404C208.835 361.504 197.268 361.593 186.895 362.183C129.053 365.462 85.1629 372.88 30.3564 388.636L30.7734 390.105C85.4707 374.381 129.277 366.978 187.008 363.703C197.344 363.119 208.894 363.028 221.123 362.928C246.291 362.731 272.319 362.522 293.015 358.067C321.121 352.016 362.588 331.094 389.222 314.214C441.521 281.072 479.06 261.086 539.089 243.831L538.672 242.362Z" fill="url(#paint11_linear_509_785)"/>
<path d="M511.737 205.708C469.325 217.902 429.264 229.414 392.351 256.482C354.937 283.916 316.595 300.41 278.396 305.507C261.399 307.775 244.199 307.275 227.559 306.79C209.539 306.263 190.903 305.723 172.065 308.616C137.802 313.882 104.282 324.174 71.8684 334.134C60.4305 337.646 48.6003 341.279 36.9018 344.639L37.3188 346.109C49.029 342.743 60.8659 339.104 72.3087 335.591C104.675 325.65 138.141 315.371 172.309 310.118C191.019 307.251 209.588 307.791 227.548 308.312C244.239 308.796 261.5 309.302 278.61 307.018C317.048 301.892 355.606 285.308 393.209 257.73C429.918 230.81 469.86 219.332 512.15 207.176L511.737 205.708Z" fill="url(#paint12_linear_509_785)"/>
<path d="M489.149 176.129C439.41 190.426 411.484 201.154 367.273 230.62C338.783 249.606 297.926 265.234 267.917 268.625C251.489 270.486 236.044 269.444 221.107 268.436C201.86 267.144 181.961 265.804 160.086 270.747C132.96 276.882 104.884 285.458 77.7342 293.753C65.0473 297.63 51.9253 301.637 39.2988 305.264L39.7159 306.733C52.3539 303.101 65.4809 299.092 78.1727 295.213C105.297 286.925 133.345 278.355 160.422 272.234C182.098 267.335 201.897 268.664 221.04 269.952C236.041 270.958 251.55 272.007 268.107 270.135C298.311 266.724 339.426 251 368.081 231.899C412.132 202.543 439.975 191.847 489.564 177.593L489.149 176.129Z" fill="url(#paint13_linear_509_785)"/>
<path d="M470.048 148.321C431.262 158.349 401.252 174.466 372.23 190.053C336.26 209.373 302.286 227.621 258.691 228.305C183.098 229.484 113.051 249.623 38.8864 270.946L34.7382 272.139L35.1552 273.608L39.3034 272.416C113.374 251.12 183.334 231.008 258.744 229.826C302.68 229.142 336.799 210.818 372.924 191.412C401.872 175.864 431.808 159.781 470.432 149.797L470.048 148.321Z" fill="url(#paint14_linear_509_785)"/>
<path d="M452.273 124.378C425.114 133.936 402.961 142.938 381.537 151.64C350.898 164.089 324.444 174.835 292.728 183.238C264.188 190.801 232.566 197.366 195.948 204.965C152.111 214.064 97.5552 225.39 29.8978 242.355L30.2687 243.832C97.8963 226.876 152.437 215.554 196.259 206.46C232.897 198.855 264.537 192.287 293.114 184.719C324.914 176.292 351.411 165.528 382.092 153.064C403.5 144.366 425.642 135.371 452.768 125.819L452.273 124.378Z" fill="url(#paint15_linear_509_785)"/>
<path d="M436.686 103.395C400.192 114.106 364.378 124.9 332.781 134.42C310.252 141.21 288.974 147.624 271.58 152.756C256.601 157.179 228.845 164.262 193.706 173.225C147.094 185.12 89.084 199.924 30.8624 216.137L31.2662 217.608C89.473 201.399 147.478 186.597 194.08 174.704C229.233 165.737 257.002 158.648 272.004 154.221C289.403 149.088 310.683 142.67 333.215 135.882C364.809 126.36 400.618 115.573 437.109 104.859L436.686 103.395Z" fill="url(#paint16_linear_509_785)"/>
<path d="M421.569 84.7213C368.972 99.6879 315.466 114.455 263.727 128.738C189.621 149.19 112.985 170.345 37.8463 192.406L38.27 193.871C113.401 171.809 190.028 150.663 264.132 130.205C315.875 115.924 369.383 101.154 421.985 86.1856L421.569 84.7213Z" fill="url(#paint17_linear_509_785)"/>
<path d="M407.143 67.9736C346.918 85.2872 285.718 102.671 226.533 119.48C167.264 136.314 105.974 153.724 45.6716 171.057L46.0886 172.526C106.386 155.194 167.676 137.785 226.947 120.948C286.132 104.138 347.332 86.7549 407.56 69.4431L407.143 67.9736Z" fill="url(#paint18_linear_509_785)"/>
<path d="M392.951 52.1416C283.54 88.8301 173.266 120.35 55.8297 148.509L56.1839 149.994C173.66 121.823 283.973 90.2921 393.421 53.5902L392.951 52.1416Z" fill="url(#paint19_linear_509_785)"/>
<path d="M376.893 34.6546C276.483 80.8111 163.724 113.787 67.542 125.121L67.733 126.636C164.06 115.282 276.969 82.2692 377.508 36.0449L376.893 34.6546Z" fill="url(#paint20_linear_509_785)"/>
</g>
<defs>
<linearGradient id="paint0_linear_509_785" x1="311.807" y1="399.56" x2="193.902" y2="-8.24742" gradientUnits="userSpaceOnUse">
<stop stop-color="#FF6620"/>
<stop offset="0.687948" stop-color="#010001"/>
</linearGradient>
<linearGradient id="paint1_linear_509_785" x1="311.807" y1="399.56" x2="193.902" y2="-8.24742" gradientUnits="userSpaceOnUse">
<stop stop-color="#FF6620"/>
<stop offset="0.687948" stop-color="#010001"/>
</linearGradient>
<linearGradient id="paint2_linear_509_785" x1="311.807" y1="399.56" x2="193.902" y2="-8.24742" gradientUnits="userSpaceOnUse">
<stop stop-color="#FF6620"/>
<stop offset="0.687948" stop-color="#010001"/>
</linearGradient>
<linearGradient id="paint3_linear_509_785" x1="311.807" y1="399.56" x2="193.902" y2="-8.24742" gradientUnits="userSpaceOnUse">
<stop stop-color="#FF6620"/>
<stop offset="0.687948" stop-color="#010001"/>
</linearGradient>
<linearGradient id="paint4_linear_509_785" x1="311.807" y1="399.56" x2="193.902" y2="-8.24742" gradientUnits="userSpaceOnUse">
<stop stop-color="#FF6620"/>
<stop offset="0.687948" stop-color="#010001"/>
</linearGradient>
<linearGradient id="paint5_linear_509_785" x1="311.807" y1="399.56" x2="193.902" y2="-8.24742" gradientUnits="userSpaceOnUse">
<stop stop-color="#FF6620"/>
<stop offset="0.687948" stop-color="#010001"/>
</linearGradient>
<linearGradient id="paint6_linear_509_785" x1="311.807" y1="399.56" x2="193.902" y2="-8.24742" gradientUnits="userSpaceOnUse">
<stop stop-color="#FF6620"/>
<stop offset="0.687948" stop-color="#010001"/>
</linearGradient>
<linearGradient id="paint7_linear_509_785" x1="311.807" y1="399.56" x2="193.902" y2="-8.24742" gradientUnits="userSpaceOnUse">
<stop stop-color="#FF6620"/>
<stop offset="0.687948" stop-color="#010001"/>
</linearGradient>
<linearGradient id="paint8_linear_509_785" x1="311.807" y1="399.56" x2="193.902" y2="-8.24742" gradientUnits="userSpaceOnUse">
<stop stop-color="#FF6620"/>
<stop offset="0.687948" stop-color="#010001"/>
</linearGradient>
<linearGradient id="paint9_linear_509_785" x1="311.807" y1="399.56" x2="193.902" y2="-8.24742" gradientUnits="userSpaceOnUse">
<stop stop-color="#FF6620"/>
<stop offset="0.687948" stop-color="#010001"/>
</linearGradient>
<linearGradient id="paint10_linear_509_785" x1="311.807" y1="399.56" x2="193.902" y2="-8.24742" gradientUnits="userSpaceOnUse">
<stop stop-color="#FF6620"/>
<stop offset="0.687948" stop-color="#010001"/>
</linearGradient>
<linearGradient id="paint11_linear_509_785" x1="311.807" y1="399.56" x2="193.902" y2="-8.24742" gradientUnits="userSpaceOnUse">
<stop stop-color="#FF6620"/>
<stop offset="0.687948" stop-color="#010001"/>
</linearGradient>
<linearGradient id="paint12_linear_509_785" x1="311.807" y1="399.56" x2="193.902" y2="-8.24742" gradientUnits="userSpaceOnUse">
<stop stop-color="#FF6620"/>
<stop offset="0.687948" stop-color="#010001"/>
</linearGradient>
<linearGradient id="paint13_linear_509_785" x1="311.807" y1="399.56" x2="193.902" y2="-8.24742" gradientUnits="userSpaceOnUse">
<stop stop-color="#FF6620"/>
<stop offset="0.687948" stop-color="#010001"/>
</linearGradient>
<linearGradient id="paint14_linear_509_785" x1="311.807" y1="399.56" x2="193.902" y2="-8.24742" gradientUnits="userSpaceOnUse">
<stop stop-color="#FF6620"/>
<stop offset="0.687948" stop-color="#010001"/>
</linearGradient>
<linearGradient id="paint15_linear_509_785" x1="311.807" y1="399.56" x2="193.902" y2="-8.24742" gradientUnits="userSpaceOnUse">
<stop stop-color="#FF6620"/>
<stop offset="0.687948" stop-color="#010001"/>
</linearGradient>
<linearGradient id="paint16_linear_509_785" x1="311.807" y1="399.56" x2="193.902" y2="-8.24742" gradientUnits="userSpaceOnUse">
<stop stop-color="#FF6620"/>
<stop offset="0.687948" stop-color="#010001"/>
</linearGradient>
<linearGradient id="paint17_linear_509_785" x1="311.807" y1="399.56" x2="193.902" y2="-8.24742" gradientUnits="userSpaceOnUse">
<stop stop-color="#FF6620"/>
<stop offset="0.687948" stop-color="#010001"/>
</linearGradient>
<linearGradient id="paint18_linear_509_785" x1="311.807" y1="399.56" x2="193.902" y2="-8.24742" gradientUnits="userSpaceOnUse">
<stop stop-color="#FF6620"/>
<stop offset="0.687948" stop-color="#010001"/>
</linearGradient>
<linearGradient id="paint19_linear_509_785" x1="311.807" y1="399.56" x2="193.902" y2="-8.24742" gradientUnits="userSpaceOnUse">
<stop stop-color="#FF6620"/>
<stop offset="0.687948" stop-color="#010001"/>
</linearGradient>
<linearGradient id="paint20_linear_509_785" x1="311.807" y1="399.56" x2="193.902" y2="-8.24742" gradientUnits="userSpaceOnUse">
<stop stop-color="#FF6620"/>
<stop offset="0.687948" stop-color="#010001"/>
</linearGradient>
<clipPath id="clip0_509_785">
<rect width="590" height="467" fill="white"/>
</clipPath>
</defs>
</svg>
