<svg width="40" height="40" viewBox="0 0 40 40" fill="none" xmlns="http://www.w3.org/2000/svg">
<g clip-path="url(#clip0_266_14730)">
<mask id="mask0_266_14730" style="mask-type:luminance" maskUnits="userSpaceOnUse" x="0" y="0" width="40" height="40">
<path d="M0 0H40V40H0V0Z" fill="white"/>
</mask>
<g mask="url(#mask0_266_14730)">
<path fill-rule="evenodd" clip-rule="evenodd" d="M40.0001 19.9996C40.0001 20.4416 39.8245 20.8655 39.512 21.1781C39.1994 21.4906 38.7755 21.6662 38.3335 21.6662H5.77346L9.69012 25.4712C9.85428 25.6219 9.98656 25.804 10.0791 26.0067C10.1717 26.2094 10.2227 26.4286 10.2291 26.6513C10.2354 26.8741 10.1971 27.0958 10.1163 27.3035C10.0355 27.5112 9.91382 27.7005 9.75855 27.8604C9.60329 28.0202 9.41755 28.1473 9.21231 28.2341C9.00708 28.3209 8.78653 28.3656 8.56369 28.3657C8.34086 28.3658 8.12027 28.3212 7.91497 28.2345C7.70968 28.1479 7.52384 28.021 7.36846 27.8612L0.505122 21.1946C0.345358 21.0392 0.218362 20.8535 0.131643 20.6482C0.0449246 20.443 0.000244141 20.2224 0.000244141 19.9996C0.000244141 19.7767 0.0449246 19.5562 0.131643 19.3509C0.218362 19.1457 0.345358 18.9599 0.505122 18.8046L7.36846 12.1379C7.68809 11.8445 8.10953 11.6873 8.54322 11.6997C8.97691 11.7122 9.38867 11.8932 9.69098 12.2044C9.99329 12.5156 10.1623 12.9325 10.1622 13.3663C10.162 13.8002 9.99266 14.2169 9.69012 14.5279L5.77346 18.3329H38.3335C38.7755 18.3329 39.1994 18.5085 39.512 18.8211C39.8245 19.1336 40.0001 19.5575 40.0001 19.9996Z" fill="white"/>
</g>
</g>
<defs>
<clipPath id="clip0_266_14730">
<rect width="40" height="40" fill="white"/>
</clipPath>
</defs>
</svg>
