<svg width="16" height="16" viewBox="0 0 16 16" fill="none" xmlns="http://www.w3.org/2000/svg">
<path d="M12 4.99997C12.0007 4.23002 11.7792 3.47624 11.362 2.8291C10.9448 2.18196 10.3498 1.66897 9.64823 1.35171C8.94669 1.03445 8.16849 0.926399 7.40705 1.04053C6.64562 1.15467 5.9333 1.48613 5.35561 1.99514C4.77792 2.50415 4.35941 3.16907 4.15032 3.91008C3.94123 4.65109 3.95044 5.4367 4.17686 6.1726C4.40327 6.9085 4.83726 7.56342 5.42673 8.05874C6.0162 8.55406 6.73609 8.86872 7.5 8.96497C7.5 8.96497 7.5 8.99997 7.5 8.99997V14.5C7.5 14.6326 7.55268 14.7598 7.64645 14.8535C7.74021 14.9473 7.86739 15 8 15C8.13261 15 8.25978 14.9473 8.35355 14.8535C8.44732 14.7598 8.5 14.6326 8.5 14.5V8.99997C8.5 8.99997 8.5 8.99997 8.5 8.96497C9.46601 8.84326 10.3545 8.37339 10.9988 7.64345C11.6431 6.91351 11.9991 5.97361 12 4.99997Z" fill="#FF6620"/>
</svg>
