<svg width="100" height="100" viewBox="0 0 100 100" fill="none" xmlns="http://www.w3.org/2000/svg">
<path d="M73.9726 6.08108C73.9726 4.33964 72.5415 2.92793 70.7763 2.92793H18.2648C8.17745 2.92793 0 10.9949 0 20.9459V81.982C0 91.9331 8.17745 100 18.2648 100H80.137C90.2244 100 98.4018 91.9331 98.4018 81.982V28.3784C98.4018 26.6369 96.9708 25.2252 95.2055 25.2252C93.4402 25.2252 92.0091 26.6369 92.0091 28.3784V81.982C92.0091 88.4502 86.6938 93.6937 80.137 93.6937H18.2648C11.708 93.6937 6.39269 88.4502 6.39269 81.982V20.9459C6.39269 14.4777 11.708 9.23423 18.2648 9.23423H70.7763C72.5415 9.23423 73.9726 7.82252 73.9726 6.08108Z" fill="#FF6620"/>
<path d="M100 10.3604C100 16.0822 95.298 20.7207 89.4977 20.7207C83.6975 20.7207 78.9954 16.0822 78.9954 10.3604C78.9954 4.63849 83.6975 0 89.4977 0C95.298 0 100 4.63849 100 10.3604Z" fill="white"/>
<path d="M16.21 49.2807V32.7013H19.0673V46.5473H27.0721V49.2807H16.21Z" fill="white"/>
<path d="M29.3864 49.2807V32.7013H32.2436V49.2807H29.3864Z" fill="white"/>
<path d="M43.6054 42.4025V39.8035H51.3381V40.991C51.3381 42.6937 51.0206 44.1948 50.3857 45.4943C49.7508 46.7788 48.8361 47.7796 47.6418 48.4965C46.4627 49.1985 45.0643 49.5495 43.4467 49.5495C41.6779 49.5495 40.151 49.1911 38.866 48.4741C37.581 47.7572 36.5984 46.7564 35.9181 45.4719C35.2529 44.1874 34.9203 42.6937 34.9203 40.991C34.9203 39.2733 35.2453 37.7722 35.8954 36.4877C36.5606 35.2031 37.5432 34.2099 38.8434 33.5079C40.1435 32.7909 41.7308 32.4324 43.6054 32.4324C44.5881 32.4324 45.6085 32.5893 46.6668 32.9029C47.725 33.2017 48.6623 33.6572 49.4786 34.2696L48.0954 36.6669C46.7953 35.6662 45.2457 35.1658 43.4467 35.1658C42.2977 35.1658 41.3 35.4122 40.4534 35.9051C39.6219 36.398 38.987 37.0851 38.5486 37.9664C38.1253 38.8327 37.9136 39.8409 37.9136 40.991C37.9136 42.7535 38.3898 44.165 39.3422 45.2255C40.2946 46.2859 41.6628 46.8162 43.4467 46.8162C44.4747 46.8162 45.3515 46.6145 46.0772 46.2113C46.8179 45.793 47.3773 45.2479 47.7552 44.5757C48.1483 43.9036 48.3675 43.1792 48.4128 42.4025H43.6054Z" fill="white"/>
<path d="M54.0116 49.2807V32.7013H56.8689V39.4451H65.3953V32.7013H68.2525V49.2807H65.3953V42.1784H56.8689V49.2807H54.0116Z" fill="white"/>
<path d="M75.5568 49.2807V35.4347H70.4546V32.7013H83.5616V35.4347H78.4594V49.2807H75.5568Z" fill="white"/>
<path d="M24.6575 63.1798C24.6575 61.5667 24.9438 60.1776 25.5164 59.0125C26.089 57.8475 26.9177 56.9588 28.0025 56.3464C29.0874 55.7191 30.3832 55.4054 31.89 55.4054C33.3967 55.4054 34.685 55.7191 35.7548 56.3464C36.8396 56.9588 37.6684 57.8475 38.2409 59.0125C38.8135 60.1776 39.0998 61.5667 39.0998 63.1798V72.2537H36.252V67.7279H27.5053V72.2537H24.6575V63.1798ZM36.252 63.1798C36.252 61.5965 35.8678 60.3643 35.0993 59.483C34.3309 58.5869 33.2611 58.1388 31.89 58.1388C30.5037 58.1388 29.4264 58.5869 28.658 59.483C27.8895 60.3643 27.5053 61.5965 27.5053 63.1798V64.9722H36.252V63.1798Z" fill="#FF6620"/>
<path d="M49.6403 55.6743C50.7703 55.6743 51.7874 55.8983 52.6914 56.3464C53.5955 56.7945 54.3112 57.4666 54.8386 58.3628C55.3659 59.259 55.6296 60.3568 55.6296 61.6563C55.6296 62.9408 55.3659 64.0312 54.8386 64.9274C54.3112 65.8235 53.5955 66.4957 52.6914 66.9438C51.7874 67.3919 50.7703 67.6159 49.6403 67.6159H45.1878V72.2537H42.34V55.6743H49.6403ZM49.3917 64.8825C50.3861 64.8825 51.1772 64.6062 51.7648 64.0536C52.3524 63.5009 52.6462 62.7018 52.6462 61.6563C52.6462 60.5958 52.3524 59.7892 51.7648 59.2366C51.1772 58.6839 50.3861 58.4076 49.3917 58.4076H45.1878V64.8825H49.3917Z" fill="#FF6620"/>
<path d="M65.1566 55.6743C66.2867 55.6743 67.3037 55.8983 68.2078 56.3464C69.1118 56.7945 69.8275 57.4666 70.3549 58.3628C70.8823 59.259 71.1459 60.3568 71.1459 61.6563C71.1459 62.9408 70.8823 64.0312 70.3549 64.9274C69.8275 65.8235 69.1118 66.4957 68.2078 66.9438C67.3037 67.3919 66.2867 67.6159 65.1566 67.6159H60.7041V72.2537H57.8564V55.6743H65.1566ZM64.908 64.8825C65.9024 64.8825 66.6935 64.6062 67.2811 64.0536C67.8687 63.5009 68.1626 62.7018 68.1626 61.6563C68.1626 60.5958 67.8687 59.7892 67.2811 59.2366C66.6935 58.6839 65.9024 58.4076 64.908 58.4076H60.7041V64.8825H64.908Z" fill="#FF6620"/>
<path d="M79.1706 72.5225C77.9954 72.5225 76.8879 72.3806 75.8482 72.0968C74.8086 71.813 73.8292 71.3351 72.9101 70.6629L74.2436 68.2657C74.9216 68.8482 75.675 69.2514 76.5037 69.4755C77.3324 69.6846 78.2214 69.7892 79.1706 69.7892C80.2706 69.7892 81.1143 69.5875 81.702 69.1842C82.3047 68.766 82.606 68.2059 82.606 67.5039C82.606 66.9064 82.2745 66.4434 81.6116 66.1148C80.9637 65.7862 80.0596 65.4651 78.8994 65.1514C77.694 64.8377 76.692 64.5091 75.8934 64.1656C75.1099 63.8221 74.447 63.3217 73.9045 62.6645C73.3621 62.0073 73.0909 61.1559 73.0909 60.1104C73.0909 58.6615 73.6258 57.5189 74.6956 56.6825C75.7804 55.8311 77.2721 55.4054 79.1706 55.4054C81.2952 55.4054 83.1635 55.8759 84.7758 56.8169L83.4875 59.2366C82.3574 58.5047 80.9185 58.1388 79.1706 58.1388C78.1912 58.1388 77.4153 58.318 76.8427 58.6765C76.2852 59.02 76.0065 59.498 76.0065 60.1104C76.0065 60.7078 76.3153 61.1783 76.9331 61.5219C77.5659 61.8505 78.4399 62.1567 79.5549 62.4404C80.8055 62.7541 81.8301 63.0752 82.6286 63.4038C83.4423 63.7325 84.1279 64.2253 84.6854 64.8825C85.2429 65.5398 85.5216 66.4135 85.5216 67.5039C85.5216 69.0423 84.9716 70.2671 83.8717 71.1782C82.7718 72.0744 81.2048 72.5225 79.1706 72.5225Z" fill="#FF6620"/>
</svg>
